<svg xmlns="http://www.w3.org/2000/svg" width="446.297" height="88.828" viewBox="0 0 446.297 88.828">
  <path id="パス_1249" data-name="パス 1249" d="M8.613-85.9H25.957v46.523q0,11.074.645,14.355a13.91,13.91,0,0,0,5.3,8.467q4.189,3.193,11.455,3.193,7.383,0,11.133-3.018A11.922,11.922,0,0,0,59-23.789a96.638,96.638,0,0,0,.762-14.59V-85.9H77.109v45.117q0,15.469-1.406,21.855A24.189,24.189,0,0,1,70.518-8.145a26.2,26.2,0,0,1-10.107,7Q54.082,1.465,43.887,1.465q-12.3,0-18.662-2.842A26.687,26.687,0,0,1,15.176-8.76a23.666,23.666,0,0,1-4.863-9.521q-1.7-7.383-1.7-21.8ZM94.275-42.422q0-13.125,3.926-22.031a40.427,40.427,0,0,1,8-11.777,33.442,33.442,0,0,1,11.1-7.734,47.158,47.158,0,0,1,18.516-3.4q18.984,0,30.381,11.777t11.4,32.754q0,20.8-11.309,32.549T136.052,1.465q-19.16,0-30.469-11.689T94.275-42.422Zm17.871-.586q0,14.59,6.738,22.119a21.955,21.955,0,0,0,17.109,7.529,21.765,21.765,0,0,0,17.021-7.471q6.65-7.471,6.65-22.412,0-14.766-6.475-22.031t-17.2-7.266q-10.723,0-17.285,7.354T112.146-43.008Zm75.466,25.254,16.523-2.52a12.107,12.107,0,0,0,4.277,7.295q3.223,2.49,9.023,2.49,6.387,0,9.609-2.344a5.231,5.231,0,0,0,2.168-4.395,4.323,4.323,0,0,0-1.172-3.105q-1.23-1.172-5.508-2.168-19.922-4.395-25.254-8.027a16.031,16.031,0,0,1-7.383-14,17.259,17.259,0,0,1,6.387-13.594q6.387-5.508,19.8-5.508,12.773,0,18.984,4.16a21.263,21.263,0,0,1,8.555,12.3L228.1-44.3a9.6,9.6,0,0,0-3.779-5.566q-2.783-1.934-7.939-1.934-6.5,0-9.316,1.816a3.9,3.9,0,0,0-1.875,3.34,3.639,3.639,0,0,0,1.641,2.988q2.227,1.641,15.381,4.629T240.581-31.7q5.156,4.395,5.156,12.246,0,8.555-7.148,14.707T217.437,1.406q-12.715,0-20.127-5.156A23.757,23.757,0,0,1,187.613-17.754Zm87.244-25.488-14.941-2.7q2.52-9.023,8.672-13.359t18.281-4.336q11.016,0,16.406,2.607a16.363,16.363,0,0,1,7.588,6.621q2.2,4.014,2.2,14.736l-.176,19.219a66.723,66.723,0,0,0,.791,12.1A35.317,35.317,0,0,0,316.634,0H300.345q-.645-1.641-1.582-4.863-.41-1.465-.586-1.934a29.683,29.683,0,0,1-9.023,6.152A25.844,25.844,0,0,1,278.9,1.406q-9.609,0-15.146-5.215a17.334,17.334,0,0,1-5.537-13.184,17.7,17.7,0,0,1,2.52-9.4,16.462,16.462,0,0,1,7.061-6.328,55.182,55.182,0,0,1,13.1-3.838q11.543-2.168,16-4.043v-1.641q0-4.746-2.344-6.768T285.7-51.035a11.782,11.782,0,0,0-6.855,1.729Q276.38-47.578,274.856-43.242Zm22.031,13.359a102.915,102.915,0,0,1-10.02,2.52q-6.855,1.465-8.965,2.871a6.867,6.867,0,0,0-3.223,5.8,8.076,8.076,0,0,0,2.578,5.977,9,9,0,0,0,6.563,2.52,14.259,14.259,0,0,0,8.5-2.93,10.313,10.313,0,0,0,3.926-5.449,32.513,32.513,0,0,0,.645-8.027ZM331.1,0V-85.9h16.465v45.586l19.277-21.914H387.12L365.85-39.492,388.643,0H370.889L355.245-27.949l-7.676,8.027V0Zm82.029-43.242-14.941-2.7q2.52-9.023,8.672-13.359t18.281-4.336q11.016,0,16.406,2.607a16.363,16.363,0,0,1,7.588,6.621q2.2,4.014,2.2,14.736l-.176,19.219a66.723,66.723,0,0,0,.791,12.1A35.317,35.317,0,0,0,454.91,0H438.621q-.645-1.641-1.582-4.863-.41-1.465-.586-1.934A29.683,29.683,0,0,1,427.43-.645a25.844,25.844,0,0,1-10.254,2.051q-9.609,0-15.146-5.215a17.334,17.334,0,0,1-5.537-13.184,17.7,17.7,0,0,1,2.52-9.4,16.462,16.462,0,0,1,7.061-6.328,55.182,55.182,0,0,1,13.1-3.838q11.543-2.168,16-4.043v-1.641q0-4.746-2.344-6.768t-8.848-2.021a11.782,11.782,0,0,0-6.855,1.729Q414.656-47.578,413.133-43.242Zm22.031,13.359a102.915,102.915,0,0,1-10.02,2.52q-6.855,1.465-8.965,2.871a6.867,6.867,0,0,0-3.223,5.8,8.076,8.076,0,0,0,2.578,5.977A9,9,0,0,0,422.1-10.2a14.259,14.259,0,0,0,8.5-2.93,10.313,10.313,0,0,0,3.926-5.449,32.513,32.513,0,0,0,.645-8.027Z" transform="translate(-8.613 87.363)" fill="#81bfda" opacity="0.4"/>
</svg>
