<svg xmlns="http://www.w3.org/2000/svg" width="48" height="48" viewBox="0 0 48 48">
  <g id="favicon" transform="translate(2904 11177)">
    <rect id="長方形_945" data-name="長方形 945" width="48" height="48" transform="translate(-2904 -11177)" fill="#002880"/>
    <path id="パス_1376" data-name="パス 1376" d="M34.8,14.558A17.492,17.492,0,0,0,22.1,0L17.478,4.62a12.237,12.237,0,0,1,11.977,9.731,17.452,17.452,0,0,0-11.978,6.874A17.451,17.451,0,0,0,5.5,14.351,12.239,12.239,0,0,1,17.478,4.62L12.858,0A17.493,17.493,0,0,0,.151,14.558,17.713,17.713,0,0,0,0,16.855a17.46,17.46,0,0,0,.271,3.054,12.22,12.22,0,0,1,3.223-.431,12.4,12.4,0,0,1,2.075.177,12.252,12.252,0,0,1,9.123,7.126,12.119,12.119,0,0,1,.713,2.129,12.324,12.324,0,0,1,.324,2.8,12.371,12.371,0,0,1-.256,2.5c-.009.041-.02.079-.029.118H19.51c-.008-.039-.019-.078-.027-.118a12.225,12.225,0,0,1,.068-5.3,12.119,12.119,0,0,1,.713-2.129,12.247,12.247,0,0,1,9.122-7.126,12.387,12.387,0,0,1,2.074-.177,12.235,12.235,0,0,1,3.225.431,17.512,17.512,0,0,0,.12-5.351" transform="translate(-2897 -11170)" fill="#fff"/>
  </g>
</svg>
