<svg xmlns="http://www.w3.org/2000/svg" width="35.828" height="33.941" viewBox="0 0 35.828 33.941">
  <g id="グループ_5919" data-name="グループ 5919" transform="translate(2108.5 7924.329)">
    <path id="パス_1275" data-name="パス 1275" d="M0,22a2,2,0,0,1-2-2V0a2,2,0,0,1,.586-1.414A2,2,0,0,1,0-2H20a2,2,0,0,1,2,2,2,2,0,0,1-2,2H2V20A2,2,0,0,1,0,22Z" transform="translate(-2075.5 -7907.358) rotate(135)" fill="#81bfda"/>
    <path id="線_24" data-name="線 24" d="M30,2H0A2,2,0,0,1-2,0,2,2,0,0,1,0-2H30a2,2,0,0,1,2,2A2,2,0,0,1,30,2Z" transform="translate(-2106.5 -7907.5)" fill="#81bfda"/>
  </g>
</svg>
