<svg xmlns="http://www.w3.org/2000/svg" width="35.828" height="33.941" viewBox="0 0 35.828 33.941">
  <g id="グループ_5920" data-name="グループ 5920" transform="translate(2192.328 7932.329)">
    <path id="パス_779" data-name="パス 779" d="M20,22H0a2,2,0,0,1-2-2V0A2,2,0,0,1,0-2,2,2,0,0,1,2,0V18H20a2,2,0,0,1,0,4Z" transform="translate(-2175.358 -7929.5) rotate(45)" fill="#81bfda"/>
    <path id="線_5" data-name="線 5" d="M30,2H0A2,2,0,0,1-2,0,2,2,0,0,1,0-2H30a2,2,0,0,1,2,2A2,2,0,0,1,30,2Z" transform="translate(-2188.5 -7915.5)" fill="#81bfda"/>
  </g>
</svg>
