<svg id="グループ_5820" data-name="グループ 5820" xmlns="http://www.w3.org/2000/svg" xmlns:xlink="http://www.w3.org/1999/xlink" width="322.696" height="81" viewBox="0 0 322.696 81">
  <defs>
    <clipPath id="clip-path">
      <rect id="長方形_819" data-name="長方形 819" width="322.696" height="81" fill="none"/>
    </clipPath>
  </defs>
  <rect id="長方形_816" data-name="長方形 816" width="38.897" height="41.889" transform="translate(6.827 7.069)" fill="#fdd000"/>
  <path id="パス_1195" data-name="パス 1195" d="M416.653,8.7,568.161,8.62V83.885l-151.508.078Zm-.4-.809h-.4V84.771l152.721-.078h.4V7.811Z" transform="translate(-246.273 -4.626)" fill="#213491"/>
  <g id="グループ_5822" data-name="グループ 5822">
    <g id="グループ_5821" data-name="グループ 5821" clip-path="url(#clip-path)">
      <path id="パス_1196" data-name="パス 1196" d="M416.889,46.868h38.064V8.8H416.889Zm17.2-25.83c-.059.03-.472.3-.56.354a17.706,17.706,0,0,0-.737,2.537A41.03,41.03,0,0,1,426.247,37L422.471,35.4c3.864-3.982,6.548-10.324,7.522-15.9l3.57.8c.088.029.707.177.707.472,0,.118-.059.177-.177.265m11.209,15.1a48.389,48.389,0,0,0-6.9-15.073l3.068-1.741a56.316,56.316,0,0,1,7.493,15.162Z" transform="translate(-246.892 -5.213)" fill="#002880"/>
      <path id="パス_1197" data-name="パス 1197" d="M537.493,35.6a26.661,26.661,0,0,0-6.047-3.717l1.8-2.772a27.508,27.508,0,0,1,6.195,3.658Zm8.643,8.023a39.675,39.675,0,0,1-11.12,6.578c-.148.413-.207.915-.442.915-.177,0-.443-.177-.649-.561l-2.065-3.54a27.613,27.613,0,0,0,10.944-5.1,41.165,41.165,0,0,0,8.643-9.027l2.035,2.949a41.447,41.447,0,0,1-7.345,7.788" transform="translate(-314.736 -17.242)" fill="#002880"/>
      <path id="パス_1198" data-name="パス 1198" d="M603.583,46.868h38.064V8.8H603.583Zm27.823-23.116a31.09,31.09,0,0,1-3.569,7.079c.62.531,1.239,1.062,2.448,2.272L628.1,35.639a16.73,16.73,0,0,0-2.271-2.153,29.391,29.391,0,0,1-9.41,6.9l-2.655-2.772a22.494,22.494,0,0,0,9.675-6.342,34.887,34.887,0,0,0-4.985-3.186l1.77-2.242a30.813,30.813,0,0,1,5.162,2.92,16.713,16.713,0,0,0,2.6-5.487h-7.463a28.288,28.288,0,0,1-5.458,5.959l-2.684-2.065c4.07-2.8,6.991-7.64,8.318-11.5l3.333,1c.207.059.59.206.59.442,0,.147-.118.207-.59.413-.148.06-.148.118-.354.531-.207.472-.65,1.239-1.3,2.33h6.755c.383,0,.974-.472,1.328-.707l2.242,2.537a2.811,2.811,0,0,0-1.3,1.534m.088-4.572a11.5,11.5,0,0,0-2.153-2.744l1.563-1.3a13.141,13.141,0,0,1,2.213,2.8ZM635.3,18a16.322,16.322,0,0,0-2.33-3.1l1.5-1.209a14.3,14.3,0,0,1,2.419,3.1Z" transform="translate(-357.457 -5.213)" fill="#002880"/>
      <path id="パス_1199" data-name="パス 1199" d="M736.234,28.955c-.443.029-.5.088-.914.531a37.748,37.748,0,0,1-4.867,4.6V49.811h-3.687V36.832a52.92,52.92,0,0,1-7.433,4.189l-2.567-2.626a45.79,45.79,0,0,0,17.109-12.537l2.567,2.124c.117.088.5.472.5.708,0,.207-.118.236-.708.265" transform="translate(-424.486 -15.314)" fill="#002880"/>
      <path id="パス_1200" data-name="パス 1200" d="M447.072,124.072v2.8h8.289v10.354c0,2.684-1.651,3.333-5.457,3.392l-1.269-3.3a15.548,15.548,0,0,0,1.711.059c1.3,0,1.5-.206,1.5-1.15v-6.254h-4.779v13.717h-3.658V129.971h-4.926v10.678h-3.54V126.874h8.466v-2.8H432.53v-3.127h10.885v-3.3l3.805.265c.148,0,.383.059.383.265a.416.416,0,0,1-.148.324c-.354.354-.383.413-.383.5v1.947H457.9v3.127Z" transform="translate(-256.155 -69.67)" fill="#002880"/>
      <rect id="長方形_817" data-name="長方形 817" width="13.215" height="2.36" transform="translate(220.339 51.924)" fill="#002880"/>
      <path id="パス_1201" data-name="パス 1201" d="M510.236,140.214H548.3V102.149H510.236Zm29.209-6.674a6.548,6.548,0,0,1-2.98-1.033,14.944,14.944,0,0,1-7.4-9.5h-6.549v5.6c3.215-.619,3.628-.707,6.873-1.534l-.207,2.655c-3.333,1.092-6.7,2.065-10.117,2.891-.679.148-.708.148-.973.5-.236.236-.325.354-.442.354-.177,0-.207-.148-.236-.236l-.826-3.628a18.046,18.046,0,0,0,2.537-.324V109.469H539.18v8.2h-7.4a15.457,15.457,0,0,0,.177,2.389h9.262v2.95h-8.7a11.317,11.317,0,0,0,3.363,5.251,5.383,5.383,0,0,0,2.39,1.3c.707,0,.973-1.888,1.091-2.773l2.714,1.828c-.708,4.632-1.858,4.927-2.625,4.927" transform="translate(-302.175 -60.495)" fill="#002880"/>
      <path id="パス_1202" data-name="パス 1202" d="M540.345,140.211V142.6H546.3a21.116,21.116,0,0,1-.265-2.389Z" transform="translate(-320.006 -83.036)" fill="#002880"/>
      <path id="パス_1203" data-name="パス 1203" d="M619.079,121.747h9V124.2h-9Zm6.342,20.53v-.944H622.56v1.386h-2.8v-9.41h8.348v8.967ZM620.052,129.5h7.227v2.448h-7.227Zm.059-4.012h7.139v2.419h-7.139Zm.03-7.434h7.02v2.419h-7.02Zm5.25,17.817H622.56v2.743h2.832Zm17.846,2.153v1.829c0,1.77-1.062,2.655-4.395,2.714l-1.386-3.156c.649.059,1.682.118,1.947.118.471,0,1.121-.148,1.121-.885v-.619H632.5v4.543h-2.832V138.03h-1.18v-2.389h1.18v-6.785H634.8v-1.092H628.37v-2.153h3.511v-1.357h-2.3v-1.947h2.3V121.1h-3.274v-2.153h3.274v-1.592l2.861.088c.826.03.944.088.944.354,0,.207-.118.3-.354.443-.324.236-.324.236-.324.707h2.744v-1.592l2.832.059c.8.029.973.148.973.354,0,.148-.089.265-.3.413-.383.3-.413.354-.413.767h3.717V121.1h-3.717v1.209h2.271v1.947h-2.271v1.357h3.717v2.153h-6.637v1.092h5.31v6.785h1.328v2.389Zm-8.436-7.168h-2.3v1.268h2.3Zm0,3.3h-2.3v1.475h2.3Zm2.95-13.068h-2.744v1.209h2.744Zm0,3.157h-2.744v1.357h2.744Zm2.773,6.608h-2.6v1.268h2.6Zm0,3.3h-2.6v1.475h2.6Z" transform="translate(-366.634 -69.499)" fill="#002880"/>
      <path id="パス_1204" data-name="パス 1204" d="M696.929,140.214h38.065V102.149H696.929Zm31.658-26.261H708c0,5.427,0,5.782-.147,7.994a17.934,17.934,0,0,0,3.186-7.64l2.714.5c.915.177.915.325.915.443,0,.295-.413.471-.767.707-.118.265-.354,1.121-.443,1.445a8.13,8.13,0,0,0,2.331,3.156v-5.81l3.274.265c.708.059.944.206.944.442s-.354.413-.767.8V121a15.947,15.947,0,0,0,2.655-6.725l2.95.649c.471.089.856.236.856.5,0,.324-.5.472-.944.649-.177.383-.325.914-.56,1.622a12.963,12.963,0,0,0,4.188,4.749l-2.124,2.36a17.193,17.193,0,0,1-3.392-3.864,10.46,10.46,0,0,1-2.124,3.068l-1.5-.944v2.183h7.138v2.891h-7.138v2.478h9v3.068H706.788v-3.068h9v-2.478h-6.962v-2.891h6.962v-2.478l-1.239,1.121a22.288,22.288,0,0,1-2.418-3.1,16.856,16.856,0,0,1-2.242,3.54l-2.124-1.15c-.265,2.124-.826,6.873-3.009,10.826l-3.1-1.15c1.386-2.714,3.067-6.46,3.067-14.749,0-1.062-.029-3.716-.354-7.227h9.469V108.26l3.569.207c.8.059.915.177.915.383,0,.177-.266.354-.649.678v1.357h10.914Z" transform="translate(-412.739 -60.495)" fill="#002880"/>
      <path id="パス_1205" data-name="パス 1205" d="M217.738,58.684v5.248c0,6.789-1.1,14.312-4.037,19.083l-4.257-1.541c2.642-4.551,4.183-9.8,4.183-20.074,0-3.559-.22-5.725-.294-6.789h11.6V50.977l4.661.257c.514.037,1.247.183,1.247.624,0,.294-.293.44-.477.55-.257.11-.4.22-.4.367V54.61H242.8v4.074Zm21.469,24.625a24.768,24.768,0,0,0-1.248-4.037c-5.725,1.321-11.523,2.312-17.358,3.119-.587.073-.807.11-1.1.587-.33.588-.367.661-.587.661-.587,0-.7-.844-.771-1.211l-.807-4.331c.771-.037,1.064-.037,3.523-.257a108.288,108.288,0,0,0,4.771-18.092L230,60.812c.881.22,1.138.4,1.138.734a.89.89,0,0,1-.477.661c-.514.294-.587.33-.661.514-1.285,4.073-3.3,10.606-4.587,14.679,6.422-.771,9.358-1.284,10.973-1.578a61.584,61.584,0,0,0-4.917-8.037l3.67-2.312a47.188,47.188,0,0,1,8.441,15.964Z" transform="translate(-124.038 -30.19)" fill="#002880"/>
      <path id="パス_1206" data-name="パス 1206" d="M321.729,73.121a11.077,11.077,0,0,1-.661,1.321h13.358c-.037,3.743-.734,9.138-2.018,11.156-1.1,1.725-2.9,2.239-5.835,2.275l-1.468-3.6a23.576,23.576,0,0,1-4.514,3.853L317.839,86.3a24.19,24.19,0,0,0,8.368-8.808h-1.835a19.868,19.868,0,0,1-3.6,4.807,36.1,36.1,0,0,1-5.762,4.551l-2.862-2.018a22.6,22.6,0,0,0,8.734-7.34H319.2a27.965,27.965,0,0,1-4.917,4.661l-2.9-1.945a20.834,20.834,0,0,0,3.23-2.422c-2.5.954-6.533,2.312-7.6,2.569-1.357.33-1.5.367-1.724.624-.4.44-.514.587-.7.587a.3.3,0,0,1-.257-.257l-.66-4.11c1.174-.22,2.789-.624,4.073-.954V67.69h-3.56V63.91h3.56v-7.3l4.257.33c.22.037.477.147.477.4s-.184.4-.4.587c-.184.11-.477.294-.477.55V63.91h3.817v3.78H311.6v7.486c1.284-.367,2.5-.734,3.707-1.174v3.046a14.11,14.11,0,0,0,2.679-3.927H314.5V70.149h20.367v2.972Zm-4.514-15.927h14.9v11.56h-14.9Zm11.34,3.083h-7.78v1.541h7.78Zm0,4.147h-7.78V66h7.78Zm1.1,13.065a21.084,21.084,0,0,1-4.22,6.422,9.906,9.906,0,0,0,1.982.22,1.842,1.842,0,0,0,1.945-1.027,13.872,13.872,0,0,0,1.174-5.615Z" transform="translate(-179.843 -33.524)" fill="#002880"/>
      <path id="パス_1207" data-name="パス 1207" d="M171.151,90.977a11.436,11.436,0,0,1-5.52,4.169l-1.753-2.44a7.976,7.976,0,0,0,4.265-2.535,7.411,7.411,0,0,0,1.706-4.714,5.585,5.585,0,0,0-1.706-4.146,6.06,6.06,0,0,0-4.028-1.587,33.641,33.641,0,0,1-2.938,10.543c-.711,1.469-1.8,3.459-3.033,3.459-.853,0-4.738-2.132-4.738-6.373a10.218,10.218,0,0,1,10.448-10.046c4.928,0,8.813,3.34,8.813,8.624a8.853,8.853,0,0,1-1.516,5.047M158.4,81.856a7.759,7.759,0,0,0-2.369,5.259c0,1.919,1.09,2.914,1.516,2.914,1.232,0,3.27-6.183,3.743-9.88a7,7,0,0,0-2.89,1.706" transform="translate(-90.851 -45.783)" fill="#002880"/>
      <rect id="長方形_818" data-name="長方形 818" width="6.566" height="18.604" transform="translate(32.222 17.978)" fill="#002880"/>
      <path id="パス_1208" data-name="パス 1208" d="M53.854,3.756H52.163A4.088,4.088,0,0,0,48.1,0H11.747A8.179,8.179,0,0,0,3.592,8.155V59.189l.022-.034c-.009.142-.022.284-.022.429a7.06,7.06,0,0,0,7.053,7.052H53.854A6.141,6.141,0,0,0,59.971,60.5V9.872a6.124,6.124,0,0,0-6.117-6.117M29.8,13.727H45.5V43.906H40.915V40.833H34.349v4.63H29.8ZM10.1,29.806V25.428H18.27a58.305,58.305,0,0,0,.084-6.734H16.46a22.588,22.588,0,0,1-2.652,5.345L9.3,22.313c1.726-2.694,3.367-5.724,4.8-12.879l4.672,1.136c.169.042.674.168.674.463,0,.252-.168.336-.421.463-.337.168-.547.295-.632.505a26.462,26.462,0,0,0-.674,2.609H27.867v4.083h-4.63c-.042,2.02-.084,3.915-.337,6.734h5.64v4.377H22.479l-.084.379a18.872,18.872,0,0,0,6.693,9.049L25.8,42.728a26.955,26.955,0,0,1-5.262-6.566,24.424,24.424,0,0,1-7.155,9.723L8.842,43.107c5.388-4.041,7.492-6.9,8.924-13.3ZM55.893,60.5a2.042,2.042,0,0,1-2.04,2.039l-43.209.02a2.973,2.973,0,0,1-.25-5.936H48.1a4.09,4.09,0,0,0,4.078-4.078V7.833h1.675a2.041,2.041,0,0,1,2.039,2.039Z" transform="translate(-2.127)" fill="#002880"/>
      <path id="パス_1209" data-name="パス 1209" d="M3.51,188.54a3.512,3.512,0,0,1-1.376-.268A3.465,3.465,0,0,1,0,185.049a3.415,3.415,0,0,1,.269-1.357,3.54,3.54,0,0,1,.743-1.108,3.306,3.306,0,0,1,1.108-.738,3.589,3.589,0,0,1,1.371-.259,3.615,3.615,0,0,1,1.381.259,3.312,3.312,0,0,1,1.108.738,3.531,3.531,0,0,1,.743,1.113,3.585,3.585,0,0,1,0,2.724,3.562,3.562,0,0,1-.739,1.112,3.289,3.289,0,0,1-1.108.743,3.541,3.541,0,0,1-1.366.264m-.019-1.209a2.165,2.165,0,0,0,1.127-.287,1.98,1.98,0,0,0,.752-.8,2.539,2.539,0,0,0,.269-1.194,2.587,2.587,0,0,0-.154-.911,2.066,2.066,0,0,0-.441-.714,2,2,0,0,0-.677-.465,2.25,2.25,0,0,0-.877-.163,2.151,2.151,0,0,0-1.113.283,2,2,0,0,0-.752.791,2.453,2.453,0,0,0-.273,1.179,2.707,2.707,0,0,0,.153.931,2.038,2.038,0,0,0,.436.719,2,2,0,0,0,.681.465,2.214,2.214,0,0,0,.868.168" transform="translate(0 -107.54)" fill="#002880"/>
      <path id="パス_1210" data-name="パス 1210" d="M20.625,181.846h1.3v6.742h-1.3Zm.959,4.249V185.03h1.563a1.2,1.2,0,0,0,.556-.13.956.956,0,0,0,.388-.364,1.1,1.1,0,0,0,.139-.571,1.083,1.083,0,0,0-.139-.561.954.954,0,0,0-.388-.365,1.2,1.2,0,0,0-.556-.13H21.584v-1.064h1.7a2.532,2.532,0,0,1,1.156.259,2,2,0,0,1,.81.734,2.078,2.078,0,0,1,.3,1.127,2.1,2.1,0,0,1-.3,1.132,1.988,1.988,0,0,1-.81.738,2.533,2.533,0,0,1-1.156.259Z" transform="translate(-12.215 -107.694)" fill="#002880"/>
      <path id="パス_1211" data-name="パス 1211" d="M36.056,181.846h1.3v6.742h-1.3Zm.959,0H40.7V183H37.015Zm0,2.743h3.4v1.122h-3.4Zm0,2.848h3.731v1.151H37.015Z" transform="translate(-21.353 -107.694)" fill="#002880"/>
      <path id="パス_1212" data-name="パス 1212" d="M51.625,188.588v-6.742h.911l.393,1.314v5.428Zm4.661,0-4-5.169.25-1.573,4.009,5.169Zm0,0-.374-1.266v-5.476h1.3v6.742Z" transform="translate(-30.574 -107.694)" fill="#002880"/>
      <path id="パス_1213" data-name="パス 1213" d="M78.779,188.54a3.176,3.176,0,0,1-1.386-.279,3.112,3.112,0,0,1-1.05-.844l.863-.863a2.31,2.31,0,0,0,.7.609,1.94,1.94,0,0,0,.954.216,1.418,1.418,0,0,0,.806-.2.637.637,0,0,0,.3-.556.718.718,0,0,0-.172-.5,1.379,1.379,0,0,0-.455-.321,5.823,5.823,0,0,0-.624-.24q-.34-.11-.676-.254a2.87,2.87,0,0,1-.623-.365,1.576,1.576,0,0,1-.455-.556,1.926,1.926,0,0,1-.168-.863,1.8,1.8,0,0,1,.3-1.045,1.9,1.9,0,0,1,.815-.662,2.856,2.856,0,0,1,1.17-.23,2.954,2.954,0,0,1,1.251.259,2.562,2.562,0,0,1,.906.671l-.863.864a2.091,2.091,0,0,0-.609-.48,1.576,1.576,0,0,0-.705-.154,1.241,1.241,0,0,0-.71.177.567.567,0,0,0-.259.494.593.593,0,0,0,.172.446,1.605,1.605,0,0,0,.455.3,6.4,6.4,0,0,0,.628.244q.346.115.681.264a2.822,2.822,0,0,1,.619.374,1.64,1.64,0,0,1,.455.585,2.045,2.045,0,0,1,.173.887A1.812,1.812,0,0,1,80.6,188a2.8,2.8,0,0,1-1.822.542" transform="translate(-45.212 -107.54)" fill="#002880"/>
      <path id="パス_1214" data-name="パス 1214" d="M92.335,181.846h1.3v6.742h-1.3Zm.959,4.249V185.03h1.563a1.192,1.192,0,0,0,.556-.13.953.953,0,0,0,.388-.364,1.1,1.1,0,0,0,.139-.571,1.08,1.08,0,0,0-.139-.561.951.951,0,0,0-.388-.365,1.192,1.192,0,0,0-.556-.13H93.294v-1.064h1.7a2.53,2.53,0,0,1,1.156.259,2,2,0,0,1,.81.734,2.074,2.074,0,0,1,.3,1.127,2.1,2.1,0,0,1-.3,1.132,1.983,1.983,0,0,1-.81.738,2.53,2.53,0,0,1-1.156.259Z" transform="translate(-54.683 -107.694)" fill="#002880"/>
      <path id="パス_1215" data-name="パス 1215" d="M105.107,188.588l2.724-6.742h1.074l2.695,6.742h-1.391l-2.091-5.524h.48l-2.11,5.524Zm1.448-2.35h3.626v1.094h-3.626Z" transform="translate(-62.247 -107.694)" fill="#002880"/>
      <path id="パス_1216" data-name="パス 1216" d="M125.8,188.54a3.508,3.508,0,0,1-1.381-.268,3.473,3.473,0,0,1-1.108-.743,3.338,3.338,0,0,1-.734-1.108,3.71,3.71,0,0,1,0-2.724,3.316,3.316,0,0,1,.729-1.1,3.445,3.445,0,0,1,1.1-.739,3.483,3.483,0,0,1,1.371-.268,3.435,3.435,0,0,1,2.513.979l-.892.891a1.938,1.938,0,0,0-.681-.48,2.376,2.376,0,0,0-.94-.172,2.226,2.226,0,0,0-.849.158,1.931,1.931,0,0,0-.676.46,2.058,2.058,0,0,0-.441.719,2.634,2.634,0,0,0-.153.916,2.662,2.662,0,0,0,.153.926,1.989,1.989,0,0,0,1.117,1.175,2.193,2.193,0,0,0,.858.163,2.4,2.4,0,0,0,.969-.177,2.085,2.085,0,0,0,.69-.484l.892.892a3.6,3.6,0,0,1-1.108.725,3.688,3.688,0,0,1-1.434.263" transform="translate(-72.443 -107.54)" fill="#002880"/>
      <path id="パス_1217" data-name="パス 1217" d="M140.715,181.846h1.3v6.742h-1.3Zm.959,0h3.683V183h-3.683Zm0,2.743h3.4v1.122h-3.4Zm0,2.848H145.4v1.151h-3.731Z" transform="translate(-83.335 -107.694)" fill="#002880"/>
      <path id="パス_1218" data-name="パス 1218" d="M164.634,181.846h1.3v6.742h-1.3Zm.959,0h3.559V183h-3.559Zm0,2.83h3.4v1.151h-3.4Z" transform="translate(-97.5 -107.694)" fill="#002880"/>
      <path id="パス_1219" data-name="パス 1219" d="M182.279,188.54a3.516,3.516,0,0,1-1.376-.268,3.465,3.465,0,0,1-2.134-3.223,3.415,3.415,0,0,1,.269-1.357,3.54,3.54,0,0,1,.743-1.108,3.306,3.306,0,0,1,1.108-.738,3.788,3.788,0,0,1,2.753,0,3.31,3.31,0,0,1,1.108.738,3.532,3.532,0,0,1,.743,1.113,3.59,3.59,0,0,1,0,2.724,3.562,3.562,0,0,1-.739,1.112,3.3,3.3,0,0,1-1.108.743,3.543,3.543,0,0,1-1.366.264m-.02-1.209a2.162,2.162,0,0,0,1.127-.287,1.978,1.978,0,0,0,.753-.8,2.539,2.539,0,0,0,.269-1.194,2.6,2.6,0,0,0-.153-.911,2.073,2.073,0,0,0-.441-.714,1.99,1.99,0,0,0-.677-.465,2.25,2.25,0,0,0-.878-.163,2.151,2.151,0,0,0-1.112.283,2,2,0,0,0-.753.791,2.453,2.453,0,0,0-.273,1.179,2.707,2.707,0,0,0,.153.931,2.038,2.038,0,0,0,.436.719,2,2,0,0,0,.681.465,2.212,2.212,0,0,0,.868.168" transform="translate(-105.871 -107.54)" fill="#002880"/>
      <path id="パス_1220" data-name="パス 1220" d="M199.865,181.846h1.3v6.742h-1.3Zm.959,3.932v-1.026h1.554a1.048,1.048,0,0,0,.748-.245.872.872,0,0,0,.259-.667.911.911,0,0,0-.259-.666.989.989,0,0,0-.739-.264h-1.563v-1.064h1.688a2.452,2.452,0,0,1,1.136.254,1.975,1.975,0,0,1,.767,2.743,1.873,1.873,0,0,1-.772.686,2.559,2.559,0,0,1-1.16.249Zm2.724,2.81-2.234-2.916,1.208-.374,2.609,3.29Z" transform="translate(-118.365 -107.694)" fill="#002880"/>
      <path id="パス_1221" data-name="パス 1221" d="M222.326,181.846h1.3v6.742h-1.3Zm4.076,6.742-2.925-3.52,2.849-3.222h1.63l-3.165,3.51v-.614l3.261,3.846Z" transform="translate(-131.667 -107.694)" fill="#002880"/>
      <path id="パス_1222" data-name="パス 1222" d="M239.918,188.588v-6.742h.911l.393,1.314v5.428Zm4.661,0-4-5.169.25-1.573,4.009,5.169Zm0,0-.374-1.266v-5.476h1.3v6.742Z" transform="translate(-142.085 -107.694)" fill="#002880"/>
      <path id="パス_1223" data-name="パス 1223" d="M261.068,188.54a3.515,3.515,0,0,1-1.376-.268,3.465,3.465,0,0,1-2.134-3.223,3.415,3.415,0,0,1,.269-1.357,3.54,3.54,0,0,1,.743-1.108,3.306,3.306,0,0,1,1.108-.738,3.788,3.788,0,0,1,2.753,0,3.309,3.309,0,0,1,1.108.738,3.531,3.531,0,0,1,.743,1.113,3.59,3.59,0,0,1,0,2.724,3.561,3.561,0,0,1-.739,1.112,3.3,3.3,0,0,1-1.108.743,3.543,3.543,0,0,1-1.366.264m-.02-1.209a2.162,2.162,0,0,0,1.127-.287,1.978,1.978,0,0,0,.753-.8,2.539,2.539,0,0,0,.269-1.194,2.6,2.6,0,0,0-.153-.911,2.073,2.073,0,0,0-.441-.714,1.989,1.989,0,0,0-.676-.465,2.25,2.25,0,0,0-.878-.163,2.151,2.151,0,0,0-1.112.283,2,2,0,0,0-.753.791,2.453,2.453,0,0,0-.273,1.179,2.707,2.707,0,0,0,.153.931,2.039,2.039,0,0,0,.436.719,2,2,0,0,0,.681.465,2.212,2.212,0,0,0,.868.168" transform="translate(-152.532 -107.54)" fill="#002880"/>
      <path id="パス_1224" data-name="パス 1224" d="M279.642,188.588l-2.186-6.742h1.3l1.621,5.188h-.441l1.582-5.188h.979l1.583,5.188h-.432l1.621-5.188h1.285l-2.186,6.742h-.978L281.8,183.41h.422l-1.592,5.179Z" transform="translate(-164.316 -107.694)" fill="#002880"/>
      <path id="パス_1225" data-name="パス 1225" d="M303.4,181.846h1.3v6.742h-1.3Zm.959,5.582h3.434v1.161h-3.434Z" transform="translate(-179.679 -107.694)" fill="#002880"/>
      <path id="パス_1226" data-name="パス 1226" d="M317.86,181.846h1.3v6.742h-1.3Zm.959,0H322.5V183h-3.683Zm0,2.743h3.4v1.122h-3.4Zm0,2.848h3.731v1.151h-3.731Z" transform="translate(-188.245 -107.694)" fill="#002880"/>
      <path id="パス_1227" data-name="パス 1227" d="M333.429,181.846h1.3v6.742h-1.3Zm.892,6.742v-1.161h1.717a2.3,2.3,0,0,0,1.136-.274,1.907,1.907,0,0,0,.767-.776,2.43,2.43,0,0,0,.273-1.175,2.289,2.289,0,0,0-.279-1.151,2,2,0,0,0-.767-.767,2.248,2.248,0,0,0-1.132-.278h-1.745v-1.161h1.764a3.818,3.818,0,0,1,1.391.249,3.3,3.3,0,0,1,1.113.705,3.216,3.216,0,0,1,.729,1.07,3.419,3.419,0,0,1,.259,1.342,3.454,3.454,0,0,1-.259,1.347,3.2,3.2,0,0,1-.729,1.074,3.313,3.313,0,0,1-1.108.705,3.744,3.744,0,0,1-1.376.249Z" transform="translate(-197.465 -107.694)" fill="#002880"/>
      <path id="パス_1228" data-name="パス 1228" d="M355.016,188.555a3.372,3.372,0,0,1-1.337-.268,3.441,3.441,0,0,1-1.1-.748,3.521,3.521,0,0,1-.744-1.113,3.454,3.454,0,0,1-.268-1.362,3.369,3.369,0,0,1,.273-1.357,3.509,3.509,0,0,1,.753-1.1,3.368,3.368,0,0,1,1.122-.734,3.7,3.7,0,0,1,1.391-.259,3.744,3.744,0,0,1,1.53.307,3.137,3.137,0,0,1,1.165.872l-.892.892a2,2,0,0,0-.777-.642,2.408,2.408,0,0,0-1.036-.221,2.249,2.249,0,0,0-1.136.283,2,2,0,0,0-.772.791,2.4,2.4,0,0,0-.278,1.17,2.437,2.437,0,0,0,.278,1.189,2.016,2.016,0,0,0,1.822,1.074,2.378,2.378,0,0,0,1.093-.23,1.575,1.575,0,0,0,.691-.686,2.38,2.38,0,0,0,.239-1.117l.853.595-2.954-.029v-1.151h3.443v.192a4.292,4.292,0,0,1-.431,2.024,2.871,2.871,0,0,1-1.189,1.223,3.6,3.6,0,0,1-1.736.408" transform="translate(-208.204 -107.555)" fill="#002880"/>
      <path id="パス_1229" data-name="パス 1229" d="M372.119,181.846h1.3v6.742h-1.3Zm.959,0h3.683V183h-3.683Zm0,2.743h3.4v1.122h-3.4Zm0,2.848h3.731v1.151h-3.731Z" transform="translate(-220.378 -107.694)" fill="#002880"/>
    </g>
  </g>
</svg>
