<svg id="グループ_5667" data-name="グループ 5667" xmlns="http://www.w3.org/2000/svg" xmlns:xlink="http://www.w3.org/1999/xlink" width="17" height="17.483" viewBox="0 0 17 17.483">
  <defs>
    <clipPath id="clip-path">
      <rect id="長方形_501" data-name="長方形 501" width="17" height="17.483" fill="#ccc"/>
    </clipPath>
  </defs>
  <g id="グループ_5391" data-name="グループ 5391" clip-path="url(#clip-path)">
    <path id="パス_784" data-name="パス 784" d="M114.136,3.535a.989.989,0,0,0,.989-.989V.989a.989.989,0,0,0-1.978,0V2.546a.989.989,0,0,0,.989.989" transform="translate(-109.283)" fill="#ccc"/>
    <path id="パス_785" data-name="パス 785" d="M327.759,3.535a.989.989,0,0,0,.989-.989V.989a.989.989,0,0,0-1.978,0V2.546a.989.989,0,0,0,.989.989" transform="translate(-315.612)" fill="#ccc"/>
    <path id="パス_786" data-name="パス 786" d="M14.618,41.287h-.612v1.136a1.858,1.858,0,1,1-3.717,0V41.287H6.711v1.136a1.859,1.859,0,1,1-3.717,0V41.287H2.382A2.382,2.382,0,0,0,0,43.669V54.978A2.382,2.382,0,0,0,2.382,57.36H14.618A2.382,2.382,0,0,0,17,54.978V43.669a2.382,2.382,0,0,0-2.382-2.382m1.223,13.691A1.225,1.225,0,0,1,14.618,56.2H2.382a1.225,1.225,0,0,1-1.223-1.223v-9.8H15.841Z" transform="translate(0 -39.877)" fill="#ccc"/>
    <rect id="長方形_489" data-name="長方形 489" width="2.146" height="2.146" transform="translate(5.764 13.112)" fill="#ccc"/>
    <rect id="長方形_490" data-name="長方形 490" width="2.146" height="2.146" transform="translate(5.764 9.786)" fill="#ccc"/>
    <rect id="長方形_491" data-name="長方形 491" width="2.146" height="2.146" transform="translate(2.437 13.112)" fill="#ccc"/>
    <rect id="長方形_492" data-name="長方形 492" width="2.146" height="2.146" transform="translate(2.437 9.786)" fill="#ccc"/>
    <rect id="長方形_493" data-name="長方形 493" width="2.146" height="2.146" transform="translate(12.417 6.46)" fill="#ccc"/>
    <rect id="長方形_494" data-name="長方形 494" width="2.146" height="2.146" transform="translate(9.09 6.46)" fill="#ccc"/>
    <rect id="長方形_495" data-name="長方形 495" width="2.146" height="2.146" transform="translate(9.09 9.786)" fill="#ccc"/>
    <rect id="長方形_496" data-name="長方形 496" width="2.146" height="2.146" transform="translate(12.417 13.112)" fill="#ccc"/>
    <rect id="長方形_497" data-name="長方形 497" width="2.146" height="2.146" transform="translate(12.417 9.786)" fill="#ccc"/>
    <rect id="長方形_498" data-name="長方形 498" width="2.146" height="2.146" transform="translate(9.09 13.112)" fill="#ccc"/>
    <rect id="長方形_499" data-name="長方形 499" width="2.146" height="2.146" transform="translate(5.764 6.46)" fill="#ccc"/>
    <rect id="長方形_500" data-name="長方形 500" width="2.146" height="2.146" transform="translate(2.437 6.46)" fill="#ccc"/>
  </g>
</svg>
