<svg id="グループ_5395" data-name="グループ 5395" xmlns="http://www.w3.org/2000/svg" xmlns:xlink="http://www.w3.org/1999/xlink" width="28.149" height="28.196" viewBox="0 0 28.149 28.196">
  <defs>
    <clipPath id="clip-path">
      <rect id="長方形_502" data-name="長方形 502" width="28.149" height="28.196" fill="#fff"/>
    </clipPath>
  </defs>
  <g id="グループ_5394" data-name="グループ 5394" clip-path="url(#clip-path)">
    <path id="パス_787" data-name="パス 787" d="M27.761,25.92l-7.946-7.969a11.055,11.055,0,0,0,1.019-1.543c.009-.017.017-.035.026-.053.132-.245.258-.494.372-.749.05-.112.091-.229.137-.343.068-.166.139-.331.2-.5.042-.121.075-.246.113-.369.054-.172.11-.342.155-.517.019-.073.031-.149.049-.223A11.026,11.026,0,0,0,21.368,6.9l-.018-.045c-.061-.147-.126-.293-.193-.437l-.026-.058c-.07-.149-.144-.295-.221-.44l-.02-.04A11.071,11.071,0,0,0,8.5.313c-.051.012-.1.02-.155.033-.186.048-.367.107-.549.164-.112.035-.226.064-.336.1-.183.064-.361.139-.54.212-.1.041-.2.077-.3.121A11.09,11.09,0,0,0,1.355,5.782L1.347,5.8c-.14.257-.271.519-.39.787-.044.1-.08.2-.122.3-.074.179-.15.358-.214.542-.038.109-.067.221-.1.331-.058.184-.118.366-.167.554-.016.064-.027.129-.042.193A11.084,11.084,0,0,0,13.758,21.863c.028-.007.057-.011.085-.018.207-.053.409-.118.612-.183.091-.029.184-.052.274-.084.185-.064.364-.14.544-.214.1-.042.205-.077.306-.122.212-.094.417-.2.622-.307.063-.033.127-.061.19-.095a11.1,11.1,0,0,0,1.535-1.011l7.95,7.973a1.331,1.331,0,0,0,.94.392,1.334,1.334,0,0,0,.944-2.275M19.416,11.107a8.334,8.334,0,0,1-8.333,8.309,8.33,8.33,0,0,1-8.309-8.333,8.333,8.333,0,0,1,8.333-8.309,8.33,8.33,0,0,1,8.309,8.333" transform="translate(0 0)" fill="#fff"/>
  </g>
</svg>
