<svg xmlns="http://www.w3.org/2000/svg" xmlns:xlink="http://www.w3.org/1999/xlink" width="56" height="56" viewBox="0 0 56 56">
  <defs>
    <clipPath id="clip-path">
      <rect id="長方形_579" data-name="長方形 579" width="36" height="36" fill="#fff"/>
    </clipPath>
  </defs>
  <g id="グループ_5914" data-name="グループ 5914" transform="translate(-898 -11)">
    <circle id="楕円形_16" data-name="楕円形 16" cx="28" cy="28" r="28" transform="translate(898 11)" fill="#81bfda"/>
    <g id="グループ_5510" data-name="グループ 5510" transform="translate(908 20.5)">
      <g id="グループ_5509" data-name="グループ 5509" transform="translate(0 0.5)" clip-path="url(#clip-path)">
        <path id="パス_824" data-name="パス 824" d="M30.913,5.3a18.108,18.108,0,1,0,5.3,12.8,18.06,18.06,0,0,0-5.3-12.8M28.257,7.96a14.352,14.352,0,1,1-10.149-4.2,14.3,14.3,0,0,1,10.149,4.2" transform="translate(0 -0.217)" fill="#fff"/>
        <path id="パス_825" data-name="パス 825" d="M218.839,329.326a1.819,1.819,0,1,0,1.819,1.82,1.82,1.82,0,0,0-1.819-1.82" transform="translate(-201.668 -306.248)" fill="#fff"/>
        <path id="パス_826" data-name="パス 826" d="M181.067,134.248l1.239.993a.669.669,0,0,0,.857-.018,1.682,1.682,0,0,1,.629-.548,3.974,3.974,0,0,1,2.031-.492,3.084,3.084,0,0,1,2,.714,2.244,2.244,0,0,1,.528.644,1.175,1.175,0,0,1,.15.537,2.222,2.222,0,0,1-.228,1.05,2.12,2.12,0,0,1-.4.543,4.539,4.539,0,0,1-.987.706c-.388.218-.806.411-1.228.643a3.8,3.8,0,0,0-1.368,1.226,3.317,3.317,0,0,0-.429.953,4.048,4.048,0,0,0-.137,1.072v.714a.67.67,0,0,0,.669.669H186a.669.669,0,0,0,.669-.669v-.714a1.1,1.1,0,0,1,.032-.29.356.356,0,0,1,.085-.161,1.14,1.14,0,0,1,.3-.218c.242-.136.631-.319,1.071-.558a7.122,7.122,0,0,0,2.137-1.657,4.933,4.933,0,0,0,.839-1.447,5.35,5.35,0,0,0,.318-1.861,4.112,4.112,0,0,0-.487-1.9,5.376,5.376,0,0,0-2.046-2.1,6.093,6.093,0,0,0-3.1-.836,6.938,6.938,0,0,0-3.494.88,3.9,3.9,0,0,0-1.281,1.106.669.669,0,0,0,.019,1.029" transform="translate(-168.025 -122.168)" fill="#fff"/>
      </g>
    </g>
  </g>
</svg>
