<svg xmlns="http://www.w3.org/2000/svg" xmlns:xlink="http://www.w3.org/1999/xlink" width="56" height="56" viewBox="0 0 56 56">
  <defs>
    <clipPath id="clip-path">
      <rect id="長方形_580" data-name="長方形 580" width="31.005" height="34.009" fill="#fff"/>
    </clipPath>
  </defs>
  <g id="グループ_5913" data-name="グループ 5913" transform="translate(-758 -11)">
    <circle id="楕円形_17" data-name="楕円形 17" cx="28" cy="28" r="28" transform="translate(758 11)" fill="#81bfda"/>
    <g id="グループ_5513" data-name="グループ 5513" transform="translate(772 22)">
      <g id="グループ_5512" data-name="グループ 5512" clip-path="url(#clip-path)">
        <path id="パス_827" data-name="パス 827" d="M15.461,14.609V6.865L6.555,15.772H14.3c.837,0,1.163-.326,1.163-1.163" transform="translate(-6.12 -6.409)" fill="#fff"/>
        <path id="パス_828" data-name="パス 828" d="M396.908,147.574l-2.055-2.055a.916.916,0,0,0-1.3,0l-1.332,1.332,3.352,3.351,1.332-1.333a.916.916,0,0,0,0-1.3" transform="translate(-366.171 -135.602)" fill="#fff"/>
        <path id="パス_829" data-name="パス 829" d="M11.291,30.375a.831.831,0,0,1-1.011-1.011l1.928-7.588L22.734,11.249l.844-.843,1.866-1.866.282-.282A3.272,3.272,0,0,1,26.045,8V1.507A1.509,1.509,0,0,0,24.537,0H11.064V9.236a1.85,1.85,0,0,1-1.848,1.849H0V32.5a1.51,1.51,0,0,0,1.508,1.508h23.03A1.51,1.51,0,0,0,26.045,32.5V21.278l-7.166,7.167Z" fill="#fff"/>
        <path id="パス_830" data-name="パス 830" d="M199.6,189.639l-1.142,4.494,4.493-1.143,11.12-11.121-3.351-3.351Zm2.1.761-.761-.761,9.688-9.689.762.762Z" transform="translate(-185.275 -166.66)" fill="#fff"/>
      </g>
    </g>
  </g>
</svg>
