<svg xmlns="http://www.w3.org/2000/svg" width="14.667" height="13.674" viewBox="0 0 14.667 13.674">
  <g id="再生ボタン付きのカチンコアイコン3" transform="translate(0 -17.328)">
    <path id="パス_1365" data-name="パス 1365" d="M13.88,17.391l-1.384,2,1.375,1.986H12.316l-1.374-1.986,1.427-2.063H10.4L8.976,19.391l1.374,1.986H8.8L7.422,19.391l1.427-2.063H6.882L5.455,19.391,6.83,21.377H5.275L3.9,19.391l1.427-2.063H3.362L1.935,19.391,3.31,21.377H1.755L.381,19.391l1.427-2.063H1.146A1.146,1.146,0,0,0,0,18.474V29.856A1.146,1.146,0,0,0,1.146,31H13.521a1.146,1.146,0,0,0,1.146-1.146V18.474A1.141,1.141,0,0,0,13.88,17.391ZM13.75,29.856a.229.229,0,0,1-.229.229H1.146a.229.229,0,0,1-.229-.229V22.294H13.75Z" fill="#fff"/>
    <path id="パス_1366" data-name="パス 1366" d="M214.534,270.852a.068.068,0,0,0,.069,0l2.915-1.739a.069.069,0,0,0,.033-.059.068.068,0,0,0-.033-.058l-2.915-1.74a.068.068,0,0,0-.1.059v3.479A.068.068,0,0,0,214.534,270.852Z" transform="translate(-208.355 -242.758)" fill="#fff"/>
  </g>
</svg>
