<svg xmlns="http://www.w3.org/2000/svg" xmlns:xlink="http://www.w3.org/1999/xlink" width="42" height="42" viewBox="0 0 42 42">
    <style  type="text/css">
    #icon_path.active path {
      fill: #81BFDA;
    }
  </style>
  <g id="icon_cat" data-name="category08" transform="translate(-667 -3855)">
    <rect id="長方形_560" data-name="長方形 560" width="42" height="42" rx="21" transform="translate(667 3855)" fill="#fff"/>
    <g id="icon_path" data-name="グループ 5490" clip-path="url(#clip-path)"  transform="translate(673 3861)">
      <path id="パス_815" data-name="パス 815" d="M14.833,0A14.833,14.833,0,1,0,29.667,14.833,14.833,14.833,0,0,0,14.833,0M5.656,5.656A12.986,12.986,0,0,1,10.491,2.6a13.589,13.589,0,0,0-2.188,4H4.8c.271-.33.558-.648.86-.95M3.8,8H7.857a25.056,25.056,0,0,0-.89,6.142H1.873A12.893,12.893,0,0,1,3.8,8m0,13.674a12.893,12.893,0,0,1-1.929-6.142h5.1a25.129,25.129,0,0,0,.881,6.142H3.8Zm1.854,2.34c-.3-.3-.588-.62-.86-.95h3.51a16.549,16.549,0,0,0,.829,1.924,11.763,11.763,0,0,0,1.353,2.08A12.985,12.985,0,0,1,5.656,24.01m8.482,3.783q-.326-.017-.647-.05a4.552,4.552,0,0,1-1.014-.635,10,10,0,0,1-2.688-4.047h4.349v4.732Zm0-6.123H9.3a23.419,23.419,0,0,1-.946-6.142h5.781V21.67Zm0-7.532H8.362A23.384,23.384,0,0,1,9.31,8h4.828v6.142Zm0-7.532H9.8c.18-.451.369-.887.576-1.286a8.705,8.705,0,0,1,2.106-2.761,4.551,4.551,0,0,1,1.014-.635q.321-.033.647-.05V6.605ZM25.865,8a12.893,12.893,0,0,1,1.928,6.142H22.7A25.116,25.116,0,0,0,21.814,8Zm-1.854-2.34c.3.3.588.62.86.95h-3.51a16.6,16.6,0,0,0-.829-1.924A11.765,11.765,0,0,0,19.179,2.6a12.993,12.993,0,0,1,4.832,3.054M15.528,1.873q.326.017.647.05a4.578,4.578,0,0,1,1.014.635,10,10,0,0,1,2.688,4.047H15.528Zm0,6.123h4.834a23.412,23.412,0,0,1,.946,6.142H15.528Zm0,7.532H21.3a23.38,23.38,0,0,1-.948,6.142H15.528Zm1.661,11.58a4.574,4.574,0,0,1-1.014.635q-.321.033-.647.05V23.061h4.343c-.18.451-.369.887-.576,1.286a8.7,8.7,0,0,1-2.106,2.761m6.822-3.1a12.984,12.984,0,0,1-4.836,3.055,13.59,13.59,0,0,0,2.188-4h3.508c-.271.33-.558.648-.86.95m1.854-2.34H21.809a25.059,25.059,0,0,0,.89-6.142h5.094a12.892,12.892,0,0,1-1.928,6.142" fill="#b2d8e9"/>
    </g>
  </g>
</svg>
