<svg xmlns="http://www.w3.org/2000/svg" xmlns:xlink="http://www.w3.org/1999/xlink" width="56" height="56" viewBox="0 0 56 56">
  <defs>
    <clipPath id="clip-path">
      <rect id="長方形_567" data-name="長方形 567" width="36.167" height="25.368" fill="#fff"/>
    </clipPath>
  </defs>
  <g id="グループ_5916" data-name="グループ 5916" transform="translate(-617 -11)">
    <circle id="楕円形_18" data-name="楕円形 18" cx="28" cy="28" r="28" transform="translate(617 11)" fill="#81bfda"/>
    <g id="グループ_5511" data-name="グループ 5511" transform="translate(627 26)">
      <g id="グループ_5488" data-name="グループ 5488" clip-path="url(#clip-path)">
        <path id="パス_814" data-name="パス 814" d="M34.533,1.789a1.009,1.009,0,0,0-.492-.493,10,10,0,0,0-1.565-.55A21.1,21.1,0,0,0,29.468.2,32.227,32.227,0,0,0,25.852,0a30.416,30.416,0,0,0-4.7.344,18.866,18.866,0,0,0-1.926.4,11.162,11.162,0,0,0-1.145.373A11.079,11.079,0,0,0,16.938.746,21.057,21.057,0,0,0,13.931.2,32.262,32.262,0,0,0,10.314,0a30.416,30.416,0,0,0-4.7.344,18.888,18.888,0,0,0-1.925.4,10.055,10.055,0,0,0-1.566.55,1.007,1.007,0,0,0-.491.493C.87,1.98,0,2.338,0,2.972v18.4a3.2,3.2,0,0,0,3.2,3.2H16.117v.167a.628.628,0,0,0,.627.629h2.68a.628.628,0,0,0,.627-.629v-.167H32.963a3.2,3.2,0,0,0,3.2-3.2V2.972c0-.635-.87-.992-1.634-1.183M17.079,20.933l-.141-.042a20.9,20.9,0,0,0-3.007-.549,32.262,32.262,0,0,0-3.617-.2,30.557,30.557,0,0,0-4.7.344,18.9,18.9,0,0,0-1.925.4l-.141.042V2.89q.3-.106.664-.2a18.842,18.842,0,0,1,2.712-.492,29.905,29.905,0,0,1,3.388-.184,28.617,28.617,0,0,1,4.384.319,16.694,16.694,0,0,1,1.716.358q.361.1.664.2Zm15.537,0-.14-.042a20.946,20.946,0,0,0-3.008-.549,32.227,32.227,0,0,0-3.616-.2,30.557,30.557,0,0,0-4.7.344,18.866,18.866,0,0,0-1.926.4l-.14.042V2.89q.3-.106.664-.2a18.77,18.77,0,0,1,2.711-.492,29.925,29.925,0,0,1,3.39-.184,28.639,28.639,0,0,1,4.384.319,16.754,16.754,0,0,1,1.716.358c.24.065.461.132.663.2Z" fill="#fff"/>
      </g>
    </g>
  </g>
</svg>
