<svg xmlns="http://www.w3.org/2000/svg" xmlns:xlink="http://www.w3.org/1999/xlink" width="42" height="42" viewBox="0 0 42 42">
   <style  type="text/css">
    #icon_path.active path {
      fill: #81BFDA;
    }
  </style>
  <g id="icon_cat" data-name="category02" transform="translate(-667 -3707)">
    <rect id="長方形_560" data-name="長方形 560" width="42" height="42" rx="21" transform="translate(667 3707)" fill="#fff"/>
    <g id="icon_path" data-name="グループ 5492" transform="translate(676 3710)" clip-path="url(#clip-path)">
      <path id="パス_816" data-name="パス 816" d="M19.747,30.9l-2.076-1.757A12.112,12.112,0,0,0,19.363,8.4L22.17,4.7,15.97,0,7.342,11.371l6.2,4.7,3.7-4.882a8.668,8.668,0,0,1,2.66,2.968A8.621,8.621,0,0,1,6.368,24.5c-.1-.093-.187-.192-.279-.288H7.753v-1.6H0v1.6H1.76a12.116,12.116,0,0,0,6.657,5.532L7.044,30.9A3.309,3.309,0,0,0,5.872,33.43v1.708H20.919V33.43A3.309,3.309,0,0,0,19.747,30.9" fill="#b2d8e9"/>
    </g>
  </g>
</svg>
