<svg xmlns="http://www.w3.org/2000/svg" width="13.832" height="17" viewBox="0 0 13.832 17">
  <g id="PDFアイコン" transform="translate(-47.706)">
    <path id="パス_1367" data-name="パス 1367" d="M58.686,0H52.6l-.309.309L48.015,4.585l-.309.309v9.253A2.855,2.855,0,0,0,50.558,17h8.128a2.855,2.855,0,0,0,2.852-2.852V2.852A2.855,2.855,0,0,0,58.686,0Zm1.8,14.148a1.8,1.8,0,0,1-1.8,1.8H50.558a1.8,1.8,0,0,1-1.8-1.8V5.332h2.78a1.5,1.5,0,0,0,1.5-1.5V1.056h5.648a1.8,1.8,0,0,1,1.8,1.8Z" fill="#fff"/>
    <path id="パス_1368" data-name="パス 1368" d="M135.968,252.785h-.947a.271.271,0,0,0-.288.293v2.449a.332.332,0,1,0,.663,0v-.744a.024.024,0,0,1,.027-.027h.546a.989.989,0,1,0,0-1.971Zm-.041,1.4h-.5a.024.024,0,0,1-.027-.027v-.771a.024.024,0,0,1,.027-.027h.5a.414.414,0,1,1,0,.825Z" transform="translate(-84.136 -244.392)" fill="#fff"/>
    <path id="パス_1369" data-name="パス 1369" d="M220.651,252.785h-.726a.271.271,0,0,0-.288.293v2.485a.267.267,0,0,0,.288.289h.726c.654,0,1.06-.207,1.222-.708a3.812,3.812,0,0,0,0-1.651C221.711,252.992,221.305,252.785,220.651,252.785Zm.587,2.129c-.077.243-.3.347-.6.347h-.306a.024.024,0,0,1-.027-.027V253.4a.024.024,0,0,1,.027-.027h.306c.307,0,.528.1.6.347a3.321,3.321,0,0,1,0,1.191Z" transform="translate(-166.222 -244.392)" fill="#fff"/>
    <path id="パス_1370" data-name="パス 1370" d="M309.432,252.785h-1.488a.271.271,0,0,0-.289.293v2.449a.332.332,0,1,0,.663,0v-.875a.024.024,0,0,1,.027-.027h.866a.285.285,0,1,0,0-.568h-.866a.024.024,0,0,1-.027-.027v-.645a.024.024,0,0,1,.027-.027h1.087a.287.287,0,1,0,0-.573Z" transform="translate(-251.318 -244.392)" fill="#fff"/>
  </g>
</svg>
