<svg xmlns="http://www.w3.org/2000/svg" xmlns:xlink="http://www.w3.org/1999/xlink" width="42" height="42" viewBox="0 0 42 42">
   <style  type="text/css">
    #icon_path.active path {
      fill: #81BFDA;
    }
  </style>
  <g id="icon_cat" data-name="category06" transform="translate(-877 -3781)">
    <rect id="長方形_560" data-name="長方形 560" width="42" height="42" rx="21" transform="translate(877 3781)" fill="#fff"/>
    <g id="icon_path" data-name="グループ 5484" clip-path="url(#clip-path)" transform="translate(885 3788)">
      <path id="パス_805" data-name="パス 805" d="M188,402.608c-.024-.038-.052-.081-.082-.124-.029.044-.058.086-.082.124a2.659,2.659,0,0,1-2.235,1.464,2.236,2.236,0,0,1-.545-.071v4.68h5.722V404a2.272,2.272,0,0,1-.544.07A2.66,2.66,0,0,1,188,402.608" transform="translate(-174.585 -379.709)" fill="#b2d8e9"/>
      <path id="パス_806" data-name="パス 806" d="M26.313,257.882l-4.867-5.664a2.3,2.3,0,0,1-1.911-1.206c-.029-.044-.065-.1-.1-.146-.036.05-.071.1-.1.145a2.152,2.152,0,0,1-3.866,0c-.029-.044-.065-.1-.1-.146-.037.05-.071.1-.1.146a2.289,2.289,0,0,1-1.932,1.2,2.288,2.288,0,0,1-1.932-1.207l-.1-.146c-.037.051-.072.1-.1.146a2.293,2.293,0,0,1-1.934,1.205A2.289,2.289,0,0,1,7.333,251c-.029-.043-.065-.1-.1-.145l-.1.145a2.3,2.3,0,0,1-1.9,1.2L.354,257.882c-.691.806-.338,1.465.787,1.465,1.22,0,1.768-1.158,2.926-1.158s1.159,1.766,2.317,1.766,1.159-1.766,2.317-1.766,1.159,1.766,2.317,1.766,1.159-1.766,2.317-1.766,1.159,1.766,2.317,1.766,1.159-1.766,2.316-1.766,1.16,1.766,2.316,1.766,1.159-1.766,2.317-1.766,1.709,1.158,2.927,1.158c1.125,0,1.478-.659.787-1.465" transform="translate(0 -236.664)" fill="#b2d8e9"/>
      <path id="パス_807" data-name="パス 807" d="M72.989,142.373c1.017,0,1.017-1.486,2.034-1.485s1.015,1.487,2.032,1.489,1.02-1.487,2.037-1.485,1.015,1.486,2.032,1.487,1.017-1.487,2.034-1.485,1.016,1.486,2.033,1.487,1.017-1.486,2.034-1.485,1.016,1.486,2.033,1.487c1.124,0,1.471-.653.77-1.452l-4.088-4.667a3.419,3.419,0,0,1-.524.043,1.8,1.8,0,0,1-1.43-.694,1.821,1.821,0,0,1-2.861,0,1.822,1.822,0,0,1-2.862,0,1.8,1.8,0,0,1-1.429.694,3.4,3.4,0,0,1-.523-.043l-4.09,4.655c-.7.8-.356,1.452.769,1.453" transform="translate(-67.79 -127.94)" fill="#b2d8e9"/>
      <path id="パス_808" data-name="パス 808" d="M140.14,7.256c.715,0,.715-.991,1.429-.991s.715.991,1.43.991.717-.991,1.43-.991.716.991,1.431.991.714-.991,1.43-.991.715.991,1.429.991c1.124,0,1.513-.684.864-1.518L145.609.626a1.425,1.425,0,0,0-2.36,0l-3.975,5.112c-.65.834-.261,1.518.866,1.518" transform="translate(-131.096 0)" fill="#b2d8e9"/>
    </g>
  </g>
</svg>
