<svg id="グループ_5399" data-name="グループ 5399" xmlns="http://www.w3.org/2000/svg" xmlns:xlink="http://www.w3.org/1999/xlink" width="18.293" height="18.324" viewBox="0 0 18.293 18.324">
  <defs>
    <clipPath id="clip-path">
      <rect id="長方形_502" data-name="長方形 502" width="18.293" height="18.324" fill="#81bfda"/>
    </clipPath>
  </defs>
  <g id="グループ_5394" data-name="グループ 5394" clip-path="url(#clip-path)">
    <path id="パス_787" data-name="パス 787" d="M18.041,16.845l-5.164-5.179a7.184,7.184,0,0,0,.663-1l.017-.034c.086-.159.167-.321.242-.487.033-.073.059-.149.089-.223.044-.108.09-.215.129-.326.028-.079.049-.16.074-.24.035-.112.072-.222.1-.336.012-.048.02-.1.032-.145a7.165,7.165,0,0,0-.336-4.388l-.012-.029c-.04-.1-.082-.19-.125-.284l-.017-.038c-.046-.1-.094-.192-.143-.286l-.013-.026A7.2,7.2,0,0,0,5.521.2c-.033.008-.067.013-.1.022-.121.031-.238.07-.357.107C4.991.354,4.917.373,4.845.4,4.726.44,4.61.489,4.494.536c-.066.027-.133.05-.2.079A7.207,7.207,0,0,0,.88,3.758l-.005.011C.784,3.935.7,4.105.622,4.28c-.029.065-.052.132-.079.2-.048.117-.1.232-.139.352C.379,4.9.36,4.973.337,5.044c-.038.12-.077.238-.108.36C.218,5.446.212,5.488.2,5.53a7.2,7.2,0,0,0,8.739,8.679L9,14.2c.135-.035.266-.077.4-.119.059-.019.12-.034.178-.054.12-.042.237-.091.354-.139.066-.027.133-.05.2-.079.138-.061.271-.13.4-.2.041-.021.083-.039.123-.061a7.217,7.217,0,0,0,1-.657l5.167,5.182a.865.865,0,0,0,.611.255.867.867,0,0,0,.614-1.479M12.618,7.218a5.416,5.416,0,0,1-5.416,5.4A5.414,5.414,0,0,1,1.8,7.2,5.416,5.416,0,0,1,7.218,1.8a5.414,5.414,0,0,1,5.4,5.416" transform="translate(0 0)" fill="#81bfda"/>
  </g>
</svg>
