<svg xmlns="http://www.w3.org/2000/svg" xmlns:xlink="http://www.w3.org/1999/xlink" width="42" height="42" viewBox="0 0 42 42">
    <style  type="text/css">
    #icon_path.active path {
      fill: #81BFDA;
    }
  </style>
  <g id="icon_cat" data-name="category07" transform="translate(-457 -3855)">
    <rect id="長方形_560" data-name="長方形 560" width="42" height="42" rx="21" transform="translate(457 3855)" fill="#fff"/>
    <g id="icon_path" data-name="グループ 5514" clip-path="url(#clip-path)" transform="translate(460 3862)">
      <path id="パス_831" data-name="パス 831" d="M169.794,194.8a1.294,1.294,0,1,0-1.294,1.294,1.294,1.294,0,0,0,1.294-1.294" transform="translate(-155.752 -180.247)" fill="#b2d8e9"/>
      <path id="パス_832" data-name="パス 832" d="M308.3,193.5A1.294,1.294,0,1,0,309.6,194.8,1.294,1.294,0,0,0,308.3,193.5" transform="translate(-285.979 -180.247)" fill="#b2d8e9"/>
      <path id="パス_833" data-name="パス 833" d="M33.841,12.351a4.194,4.194,0,0,0-2.671-1.217,14.058,14.058,0,0,0-27.509.024,4.2,4.2,0,0,0,.545,8.373c.082,0,.159-.012.24-.017A14.061,14.061,0,0,0,30.4,19.5a4.1,4.1,0,0,0,.471.03,4.206,4.206,0,0,0,2.974-7.18M19.51,2.127a2.708,2.708,0,0,1,.214.28,4.145,4.145,0,0,1,.617,2.352,10,10,0,0,1-.7,3.405,11.652,11.652,0,0,1-3.1-3.527,5.222,5.222,0,0,1-.679-2.42c0-.063,0-.114.006-.165a11.471,11.471,0,0,1,3.644.075m-4,3.053a10.326,10.326,0,0,0,1.218,1.783c-.525-.212-1.051-.41-1.545-.62A6.149,6.149,0,0,1,13.1,5.06a2.8,2.8,0,0,1-.592-.922,3.436,3.436,0,0,1-.214-1.055A12.049,12.049,0,0,1,14.7,2.26a6.405,6.405,0,0,0,.812,2.92M32.468,16.927a2.25,2.25,0,0,1-2.352.533l-.919-.323-.319.92a12.133,12.133,0,0,1-22.9.062l-.3-.852-.871.239a2.264,2.264,0,1,1-.6-4.446c.04,0,.1,0,.18.009l.9.071.135-.894a12.156,12.156,0,0,1,5.759-8.582,4.318,4.318,0,0,0,.247.921,3.929,3.929,0,0,0,.727,1.172,5.965,5.965,0,0,0,1.854,1.331c1.023.5,2.127.85,3.055,1.283a6.209,6.209,0,0,1,1.224.719,2.9,2.9,0,0,1,.8.937A.582.582,0,0,0,20.136,10a12.709,12.709,0,0,0,1.37-5.246A5.8,5.8,0,0,0,21.1,2.52a12.1,12.1,0,0,1,8.321,9.753l.143.964.963-.147a2.334,2.334,0,0,1,.344-.03,2.264,2.264,0,0,1,1.6,3.866" transform="translate(0 0)" fill="#b2d8e9"/>
      <path id="パス_834" data-name="パス 834" d="M194.528,272.982a4.377,4.377,0,0,1-7.1,0,.679.679,0,0,0-1.1.8,5.736,5.736,0,0,0,9.306,0,.679.679,0,0,0-1.1-.8" transform="translate(-173.441 -254.02)" fill="#b2d8e9"/>
    </g>
  </g>
</svg>
