<svg xmlns="http://www.w3.org/2000/svg" xmlns:xlink="http://www.w3.org/1999/xlink" width="42" height="42" viewBox="0 0 42 42">
   <style  type="text/css">
    #icon_path.active path {
      fill: #81BFDA;
    }
  </style>
  <g id="icon_cat" data-name="category04" transform="translate(-457 -3781)">
    <rect id="長方形_560" data-name="長方形 560" width="42" height="42" rx="21" transform="translate(457 3781)" fill="#fff"/>
    <g id="icon_path" data-name="グループ 5495" clip-path="url(#clip-path)"  transform="translate(465 3790)">
      <path id="パス_817" data-name="パス 817" d="M20.863,9.4c4.965-.438,5.987-2.774,4.525-4.964C22.762.5,16.962-1.046,11.109.732,3.744,2.97-1.129,9.775.226,15.933s8.424,9.335,15.789,7.1a16.912,16.912,0,0,0,7.876-5.069c.788-.915,1.061-3.744-2.59-3.6-3.893.156-4.432-4.612-.438-4.965M19.6,4.06a1.928,1.928,0,1,1-.565,1.363A1.941,1.941,0,0,1,19.6,4.06M3.314,10.387a1.665,1.665,0,1,1,1.056,2.1,1.665,1.665,0,0,1-1.056-2.1M6.5,18.04a1.577,1.577,0,1,1-.062-2.229A1.578,1.578,0,0,1,6.5,18.04M9.676,7.559A1.752,1.752,0,0,1,7.63,4.715h0A1.752,1.752,0,0,1,9.676,7.559m3.043-3.324a1.84,1.84,0,1,1,2.04,1.615,1.839,1.839,0,0,1-2.04-1.615m5.608,13.788a2.336,2.336,0,1,1-.684-1.653,2.351,2.351,0,0,1,.684,1.653" transform="translate(0 0)" fill="#b2d8e9"/>
    </g>
  </g>
</svg>
