<svg id="グループ_5719" data-name="グループ 5719" xmlns="http://www.w3.org/2000/svg" xmlns:xlink="http://www.w3.org/1999/xlink" width="21" height="21" viewBox="0 0 21 21">
  <defs>
    <clipPath id="clip-path">
      <rect id="長方形_719" data-name="長方形 719" width="21" height="21" fill="#373737"/>
    </clipPath>
  </defs>
  <g id="グループ_5718" data-name="グループ 5718" clip-path="url(#clip-path)">
    <path id="パス_877" data-name="パス 877" d="M13,20a7,7,0,1,1,4.949-2.05.875.875,0,0,1-1.237-1.237A5.25,5.25,0,1,0,13,18.25a5.37,5.37,0,0,0,1.376-.181.875.875,0,0,1,.45,1.691A7.116,7.116,0,0,1,13,20" transform="translate(-3.376 -3.375)" fill="#373737"/>
    <path id="パス_878" data-name="パス 878" d="M34.319,35.194a.872.872,0,0,1-.619-.256l-3.544-3.544a.875.875,0,0,1,1.237-1.237L34.938,33.7a.875.875,0,0,1-.619,1.494" transform="translate(-16.819 -16.819)" fill="#373737"/>
    <path id="パス_879" data-name="パス 879" d="M20.25,21.75H15.875a.875.875,0,1,1,0-1.75H20.25a.875.875,0,0,1,0,1.75" transform="translate(-8.438 -11.25)" fill="#373737"/>
    <path id="パス_880" data-name="パス 880" d="M20.875,21.125A.875.875,0,0,1,20,20.25V15.875a.875.875,0,1,1,1.75,0V20.25a.875.875,0,0,1-.875.875" transform="translate(-11.25 -8.438)" fill="#373737"/>
  </g>
</svg>
