<svg xmlns="http://www.w3.org/2000/svg" xmlns:xlink="http://www.w3.org/1999/xlink" width="260.004" height="136" viewBox="0 0 260.004 136">
  <defs>
    <clipPath id="clip-path">
      <rect id="長方形_819" data-name="長方形 819" width="260.004" height="65.264" fill="#fff"/>
    </clipPath>
    <clipPath id="clip-path-2">
      <rect id="長方形_838" data-name="長方形 838" width="182.447" height="44.785" fill="#fff"/>
    </clipPath>
  </defs>
  <g id="グループ_5823" data-name="グループ 5823" transform="translate(-168 -4778.208)">
    <g id="グループ_5823-2" data-name="グループ 5823" transform="translate(168 4848.944)">
      <path id="パス_1195" data-name="パス 1195" d="M416.5,8.526,538.57,8.463V69.105L416.5,69.168Zm-.326-.652h-.326V69.82L538.9,69.757h.326V7.811Z" transform="translate(-279.217 -5.245)" fill="#fff"/>
      <g id="グループ_5822" data-name="グループ 5822">
        <g id="グループ_5821" data-name="グループ 5821" clip-path="url(#clip-path)">
          <path id="パス_1196" data-name="パス 1196" d="M416.889,39.473h30.669V8.8H416.889ZM430.75,18.661c-.047.024-.38.238-.451.286a14.269,14.269,0,0,0-.594,2.044,33.059,33.059,0,0,1-5.276,10.529l-3.042-1.283c3.113-3.209,5.276-8.319,6.061-12.811l2.876.642c.071.024.57.143.57.38,0,.095-.047.143-.143.214m9.032,12.169a38.988,38.988,0,0,0-5.561-12.145l2.472-1.4A45.375,45.375,0,0,1,442.73,29.5Z" transform="translate(-279.918 -5.911)" fill="#fff"/>
          <path id="パス_1197" data-name="パス 1197" d="M536.318,34.343a21.481,21.481,0,0,0-4.872-3l1.45-2.234a22.164,22.164,0,0,1,4.991,2.947Zm6.964,6.464a31.968,31.968,0,0,1-8.96,5.3c-.119.333-.167.737-.357.737-.143,0-.357-.143-.523-.452l-1.664-2.852a22.248,22.248,0,0,0,8.818-4.112,33.166,33.166,0,0,0,6.964-7.273l1.64,2.376a33.4,33.4,0,0,1-5.918,6.275" transform="translate(-356.837 -19.548)" fill="#fff"/>
          <path id="パス_1198" data-name="パス 1198" d="M603.583,39.473h30.669V8.8H603.583ZM626,20.847a25.049,25.049,0,0,1-2.876,5.7c.5.428,1,.856,1.973,1.83l-1.759,2.044a13.481,13.481,0,0,0-1.83-1.735,23.681,23.681,0,0,1-7.582,5.561l-2.139-2.234a18.123,18.123,0,0,0,7.8-5.11,28.108,28.108,0,0,0-4.017-2.567l1.426-1.806a24.826,24.826,0,0,1,4.159,2.353,13.467,13.467,0,0,0,2.092-4.421h-6.013a22.793,22.793,0,0,1-4.4,4.8L610.671,23.6a19.431,19.431,0,0,0,6.7-9.269l2.686.808c.167.047.475.166.475.356,0,.119-.095.167-.475.332-.119.048-.119.1-.285.428-.167.38-.523,1-1.046,1.877h5.443c.309,0,.785-.38,1.07-.57l1.806,2.044A2.265,2.265,0,0,0,626,20.847m.071-3.684a9.271,9.271,0,0,0-1.735-2.211l1.259-1.046a10.587,10.587,0,0,1,1.783,2.258Zm3.066-.951a13.153,13.153,0,0,0-1.878-2.5l1.212-.974a11.524,11.524,0,0,1,1.949,2.5Z" transform="translate(-405.273 -5.911)" fill="#fff"/>
          <path id="パス_1199" data-name="パス 1199" d="M732.451,28.354c-.357.024-.4.071-.737.428a30.413,30.413,0,0,1-3.922,3.708V45.157h-2.971V34.7a42.642,42.642,0,0,1-5.989,3.375l-2.068-2.116a36.894,36.894,0,0,0,13.785-10.1l2.068,1.711c.095.071.4.38.4.57,0,.167-.1.19-.571.214" transform="translate(-481.269 -17.362)" fill="#fff"/>
          <path id="パス_1200" data-name="パス 1200" d="M444.247,122.822v2.258h6.679v8.342c0,2.163-1.331,2.686-4.4,2.733l-1.022-2.662a12.529,12.529,0,0,0,1.379.047c1.046,0,1.212-.166,1.212-.927v-5.039h-3.85v11.052H441.3V127.576h-3.969v8.6h-2.852v-11.1H441.3v-2.258h-8.77V120.3h8.77v-2.662l3.066.214c.119,0,.309.047.309.214a.335.335,0,0,1-.119.261c-.285.285-.309.333-.309.4V120.3h8.722v2.519Z" transform="translate(-290.42 -78.99)" fill="#fff"/>
          <rect id="長方形_817" data-name="長方形 817" width="10.648" height="1.901" transform="translate(177.533 41.836)" fill="#fff"/>
          <path id="パス_1201" data-name="パス 1201" d="M510.236,132.819h30.67v-30.67h-30.67Zm23.535-5.377a5.276,5.276,0,0,1-2.4-.832,12.04,12.04,0,0,1-5.965-7.653h-5.276v4.515c2.59-.5,2.923-.57,5.538-1.236l-.167,2.139c-2.685.88-5.395,1.664-8.152,2.329-.547.119-.57.119-.784.4-.19.19-.262.286-.356.286-.143,0-.167-.119-.19-.19l-.666-2.923a14.54,14.54,0,0,0,2.044-.261V108.047h16.162v6.607h-5.966a12.452,12.452,0,0,0,.143,1.925H535.2v2.377h-7.011a9.118,9.118,0,0,0,2.71,4.23,4.337,4.337,0,0,0,1.925,1.046c.57,0,.784-1.521.879-2.234l2.187,1.473c-.57,3.732-1.5,3.97-2.115,3.97" transform="translate(-342.596 -68.587)" fill="#fff"/>
          <path id="パス_1202" data-name="パス 1202" d="M540.345,140.211v1.925h4.8a17,17,0,0,1-.214-1.925Z" transform="translate(-362.812 -94.144)" fill="#fff"/>
          <path id="パス_1203" data-name="パス 1203" d="M619.079,120.893h7.249v1.973h-7.249Zm5.11,16.542v-.76h-2.305v1.117h-2.258V130.21h6.726v7.225Zm-4.326-10.291h5.823v1.973h-5.823Zm.047-3.232h5.752v1.949h-5.752Zm.024-5.99h5.656v1.949h-5.656Zm4.23,14.356h-2.281v2.21h2.281Zm14.379,1.735v1.474c0,1.426-.856,2.139-3.541,2.187l-1.117-2.543c.523.047,1.355.1,1.569.1.38,0,.9-.119.9-.713v-.5h-6.465v3.66h-2.282v-3.66h-.95v-1.925h.95v-5.466h4.135v-.88h-5.181v-1.735h2.829v-1.093H627.54v-1.569h1.854v-.974h-2.638v-1.735h2.638v-1.283l2.305.071c.665.024.76.071.76.285,0,.167-.095.238-.285.357-.261.19-.261.19-.261.57h2.211v-1.283l2.281.047c.642.024.784.119.784.285,0,.119-.071.214-.238.333-.309.238-.333.285-.333.618h2.995v1.735h-2.995v.974h1.83v1.569h-1.83v1.093h2.995v1.735h-5.348v.88h4.278v5.466h1.07v1.925Zm-6.8-5.775h-1.854v1.022h1.854Zm0,2.662h-1.854v1.188h1.854Zm2.377-10.529h-2.211v.974h2.211Zm0,2.543h-2.211v1.093h2.211Zm2.234,5.324h-2.091v1.022h2.091Zm0,2.662h-2.091v1.188h2.091Z" transform="translate(-415.678 -78.795)" fill="#fff"/>
          <path id="パス_1204" data-name="パス 1204" d="M696.929,132.819H727.6v-30.67h-30.67Zm25.507-21.159H705.847c0,4.373,0,4.659-.119,6.441a14.45,14.45,0,0,0,2.567-6.155l2.187.4c.737.143.737.262.737.357,0,.238-.333.38-.618.57-.095.214-.285.9-.357,1.164a6.55,6.55,0,0,0,1.878,2.543V112.3l2.638.214c.57.047.761.166.761.356s-.286.333-.618.642v3.827a12.85,12.85,0,0,0,2.139-5.419l2.377.523c.38.072.689.19.689.4,0,.261-.4.38-.761.523-.142.309-.261.737-.451,1.307a10.445,10.445,0,0,0,3.375,3.826l-1.711,1.9a13.85,13.85,0,0,1-2.733-3.113,8.426,8.426,0,0,1-1.711,2.472L714.9,119v1.759h5.752v2.329H714.9v2h7.249v2.472H704.873v-2.472h7.249v-2h-5.609v-2.329h5.609v-2l-1,.9a17.96,17.96,0,0,1-1.949-2.5,13.582,13.582,0,0,1-1.806,2.852l-1.712-.927a24.621,24.621,0,0,1-2.424,8.722l-2.5-.927c1.117-2.187,2.471-5.2,2.471-11.883,0-.856-.024-2.994-.285-5.823h7.629v-2.115l2.876.167c.642.047.737.142.737.309,0,.143-.214.285-.523.546v1.093h8.794Z" transform="translate(-467.95 -68.587)" fill="#fff"/>
          <path id="パス_1205" data-name="パス 1205" d="M216.126,57.186v4.228c0,5.47-.887,11.532-3.253,15.376l-3.43-1.242c2.129-3.667,3.371-7.895,3.371-16.174,0-2.868-.177-4.613-.237-5.47h9.344V50.977l3.755.207c.414.03,1.005.148,1.005.5,0,.237-.236.355-.384.444-.207.088-.325.177-.325.3V53.9h10.349v3.282Zm17.3,19.841a19.953,19.953,0,0,0-1.005-3.253c-4.613,1.065-9.285,1.863-13.986,2.513-.473.059-.651.089-.887.473-.266.473-.3.533-.473.533-.473,0-.562-.68-.621-.976l-.651-3.489c.621-.03.858-.03,2.838-.207a87.248,87.248,0,0,0,3.844-14.577L226,58.9c.71.177.917.325.917.591a.717.717,0,0,1-.384.532c-.414.237-.473.266-.532.414-1.035,3.282-2.661,8.545-3.7,11.827,5.175-.621,7.54-1.035,8.841-1.271a49.623,49.623,0,0,0-3.962-6.476l2.957-1.863a38.02,38.02,0,0,1,6.8,12.862Z" transform="translate(-140.63 -34.228)" fill="#fff"/>
          <path id="パス_1206" data-name="パス 1206" d="M318.222,69.913a8.925,8.925,0,0,1-.532,1.065h10.763c-.03,3.016-.592,7.363-1.626,8.989-.887,1.39-2.336,1.8-4.7,1.833l-1.183-2.9a19,19,0,0,1-3.637,3.1l-2.218-1.478a19.49,19.49,0,0,0,6.742-7.1h-1.478a16.01,16.01,0,0,1-2.9,3.873,29.085,29.085,0,0,1-4.642,3.667L310.5,79.345a18.207,18.207,0,0,0,7.037-5.914h-1.36a22.534,22.534,0,0,1-3.962,3.755l-2.336-1.568a16.786,16.786,0,0,0,2.6-1.951c-2.011.769-5.263,1.863-6.121,2.07-1.094.266-1.212.3-1.389.5-.326.355-.414.473-.562.473a.243.243,0,0,1-.207-.207l-.532-3.312c.946-.177,2.247-.5,3.282-.769V65.537h-2.868V62.491h2.868V56.607l3.43.266c.177.03.384.118.384.325s-.148.325-.325.473c-.148.089-.384.237-.384.444v4.376h3.075v3.046h-3.075v6.032c1.035-.3,2.011-.591,2.987-.946v2.454a11.37,11.37,0,0,0,2.158-3.164H312.4V67.518h16.41v2.395ZM314.585,57.08H326.59v9.315H314.585Zm9.137,2.484h-6.269v1.242h6.269Zm0,3.341h-6.269v1.272h6.269Zm.887,10.527a16.988,16.988,0,0,1-3.4,5.174,7.982,7.982,0,0,0,1.6.177,1.484,1.484,0,0,0,1.567-.828,11.177,11.177,0,0,0,.946-4.524Z" transform="translate(-203.901 -38.009)" fill="#fff"/>
          <path id="パス_1207" data-name="パス 1207" d="M167.7,88.321a9.214,9.214,0,0,1-4.448,3.359l-1.413-1.966a6.427,6.427,0,0,0,3.436-2.043,5.972,5.972,0,0,0,1.374-3.8,4.5,4.5,0,0,0-1.374-3.341,4.883,4.883,0,0,0-3.245-1.279,27.106,27.106,0,0,1-2.367,8.495c-.573,1.183-1.451,2.787-2.443,2.787a5.432,5.432,0,0,1-3.818-5.135,8.233,8.233,0,0,1,8.418-8.094,6.744,6.744,0,0,1,7.1,6.948,7.133,7.133,0,0,1-1.222,4.066m-10.27-7.349a6.252,6.252,0,0,0-1.909,4.238c0,1.547.878,2.348,1.222,2.348.993,0,2.634-4.982,3.016-7.96a5.64,5.64,0,0,0-2.329,1.374" transform="translate(-103.004 -51.907)" fill="#fff"/>
          <rect id="長方形_818" data-name="長方形 818" width="5.29" height="14.99" transform="translate(25.962 14.485)" fill="#fff"/>
          <path id="パス_1208" data-name="パス 1208" d="M44.09,3.026H42.727A3.294,3.294,0,0,0,39.455,0H10.163A6.59,6.59,0,0,0,3.592,6.571V47.69l.017-.028c-.007.115-.017.229-.017.346A5.689,5.689,0,0,0,9.275,53.69H44.09a4.948,4.948,0,0,0,4.928-4.944V7.954A4.934,4.934,0,0,0,44.09,3.026M24.711,11.06h12.65V35.376h-3.7V32.9h-5.29v3.73H24.711ZM8.839,24.015V20.488h6.579a46.978,46.978,0,0,0,.068-5.426H13.96a18.2,18.2,0,0,1-2.137,4.307L8.2,17.979c1.39-2.17,2.713-4.612,3.866-10.377l3.764.915c.136.034.543.136.543.373,0,.2-.136.271-.339.373-.272.136-.441.238-.509.407a21.321,21.321,0,0,0-.543,2.1h8.174v3.29H19.42c-.034,1.628-.068,3.154-.272,5.426h4.545v3.527H18.81l-.068.305a15.206,15.206,0,0,0,5.393,7.291l-2.646,2.815a21.718,21.718,0,0,1-4.239-5.291,19.679,19.679,0,0,1-5.765,7.834L7.822,34.732c4.341-3.256,6.037-5.562,7.19-10.717ZM45.732,48.746a1.645,1.645,0,0,1-1.644,1.643L9.274,50.4a2.4,2.4,0,0,1-.2-4.783H39.455a3.3,3.3,0,0,0,3.286-3.286V6.312H44.09a1.645,1.645,0,0,1,1.643,1.643Z" transform="translate(-2.412)" fill="#fff"/>
          <path id="パス_1209" data-name="パス 1209" d="M2.828,187.19a2.83,2.83,0,0,1-1.109-.216,2.792,2.792,0,0,1-1.72-2.6,2.752,2.752,0,0,1,.217-1.093,2.853,2.853,0,0,1,.6-.893,2.663,2.663,0,0,1,.892-.6,2.891,2.891,0,0,1,1.1-.209,2.913,2.913,0,0,1,1.113.209,2.668,2.668,0,0,1,.893.6,2.845,2.845,0,0,1,.6.9,2.888,2.888,0,0,1,0,2.194,2.87,2.87,0,0,1-.6.9,2.65,2.65,0,0,1-.892.6,2.853,2.853,0,0,1-1.1.213m-.015-.974a1.744,1.744,0,0,0,.908-.232,1.6,1.6,0,0,0,.606-.645,2.046,2.046,0,0,0,.217-.962,2.084,2.084,0,0,0-.124-.734,1.664,1.664,0,0,0-.355-.576,1.607,1.607,0,0,0-.545-.375,1.813,1.813,0,0,0-.707-.131,1.733,1.733,0,0,0-.9.228,1.611,1.611,0,0,0-.606.638,1.976,1.976,0,0,0-.22.95,2.181,2.181,0,0,0,.124.75,1.642,1.642,0,0,0,.351.579,1.611,1.611,0,0,0,.549.375,1.784,1.784,0,0,0,.7.135" transform="translate(0 -121.926)" fill="#fff"/>
          <path id="パス_1210" data-name="パス 1210" d="M20.625,181.846h1.051v5.432H20.625Zm.773,3.423v-.858h1.26a.962.962,0,0,0,.448-.1.77.77,0,0,0,.313-.293.89.89,0,0,0,.112-.46.873.873,0,0,0-.112-.452.769.769,0,0,0-.313-.294.963.963,0,0,0-.448-.1H21.4v-.858h1.368a2.041,2.041,0,0,1,.931.209,1.612,1.612,0,0,1,.653.591,1.674,1.674,0,0,1,.24.908,1.694,1.694,0,0,1-.24.912,1.6,1.6,0,0,1-.653.6,2.041,2.041,0,0,1-.931.209Z" transform="translate(-13.849 -122.1)" fill="#fff"/>
          <path id="パス_1211" data-name="パス 1211" d="M36.056,181.846h1.051v5.432H36.056Zm.772,0H39.8v.927H36.828Zm0,2.21h2.743v.9H36.828Zm0,2.295h3.006v.927H36.828Z" transform="translate(-24.21 -122.1)" fill="#fff"/>
          <path id="パス_1212" data-name="パス 1212" d="M51.625,187.278v-5.432h.734l.317,1.059v4.374Zm3.756,0-3.222-4.165.2-1.267,3.23,4.165Zm0,0-.3-1.02v-4.412H56.13v5.432Z" transform="translate(-34.663 -122.1)" fill="#fff"/>
          <path id="パス_1213" data-name="パス 1213" d="M78.306,187.19a2.559,2.559,0,0,1-1.116-.224,2.507,2.507,0,0,1-.846-.68l.7-.7a1.861,1.861,0,0,0,.56.491,1.563,1.563,0,0,0,.769.174,1.142,1.142,0,0,0,.649-.162.513.513,0,0,0,.24-.448.578.578,0,0,0-.139-.4,1.111,1.111,0,0,0-.367-.259,4.692,4.692,0,0,0-.5-.193q-.274-.089-.544-.2a2.313,2.313,0,0,1-.5-.294,1.27,1.27,0,0,1-.367-.448,1.552,1.552,0,0,1-.135-.7,1.448,1.448,0,0,1,.24-.842,1.53,1.53,0,0,1,.657-.533,2.3,2.3,0,0,1,.943-.186,2.38,2.38,0,0,1,1.008.209,2.064,2.064,0,0,1,.73.541l-.7.7a1.684,1.684,0,0,0-.491-.386,1.27,1.27,0,0,0-.568-.124,1,1,0,0,0-.572.143.457.457,0,0,0-.209.4.478.478,0,0,0,.139.359,1.293,1.293,0,0,0,.367.24,5.159,5.159,0,0,0,.506.2q.278.093.549.213a2.274,2.274,0,0,1,.5.3,1.321,1.321,0,0,1,.367.471,1.648,1.648,0,0,1,.139.715,1.46,1.46,0,0,1-.533,1.194,2.253,2.253,0,0,1-1.468.437" transform="translate(-51.26 -121.926)" fill="#fff"/>
          <path id="パス_1214" data-name="パス 1214" d="M92.335,181.846h1.051v5.432H92.335Zm.773,3.423v-.858h1.259a.96.96,0,0,0,.448-.1.768.768,0,0,0,.313-.293.887.887,0,0,0,.112-.46.87.87,0,0,0-.112-.452.767.767,0,0,0-.313-.294.961.961,0,0,0-.448-.1H93.108v-.858h1.367a2.039,2.039,0,0,1,.931.209,1.607,1.607,0,0,1,.653.591,1.671,1.671,0,0,1,.24.908,1.691,1.691,0,0,1-.24.912,1.6,1.6,0,0,1-.653.6,2.039,2.039,0,0,1-.931.209Z" transform="translate(-61.998 -122.1)" fill="#fff"/>
          <path id="パス_1215" data-name="パス 1215" d="M105.107,187.278l2.194-5.432h.866l2.171,5.432h-1.12l-1.685-4.451h.386l-1.7,4.451Zm1.167-1.893h2.921v.881h-2.921Z" transform="translate(-70.574 -122.1)" fill="#fff"/>
          <path id="パス_1216" data-name="パス 1216" d="M125.128,187.19a2.826,2.826,0,0,1-1.113-.216,2.8,2.8,0,0,1-.892-.6,2.689,2.689,0,0,1-.591-.893,2.99,2.99,0,0,1,0-2.194,2.672,2.672,0,0,1,.587-.889,2.776,2.776,0,0,1,.888-.6,2.806,2.806,0,0,1,1.1-.216,2.768,2.768,0,0,1,2.025.789l-.719.718a1.562,1.562,0,0,0-.548-.386,1.914,1.914,0,0,0-.758-.139,1.794,1.794,0,0,0-.684.127,1.555,1.555,0,0,0-.545.371,1.658,1.658,0,0,0-.355.58,2.122,2.122,0,0,0-.124.738,2.145,2.145,0,0,0,.124.746,1.6,1.6,0,0,0,.9.947,1.767,1.767,0,0,0,.692.131,1.931,1.931,0,0,0,.781-.143,1.68,1.68,0,0,0,.556-.39l.719.719a2.9,2.9,0,0,1-.892.584,2.971,2.971,0,0,1-1.156.212" transform="translate(-82.133 -121.926)" fill="#fff"/>
          <path id="パス_1217" data-name="パス 1217" d="M140.715,181.846h1.051v5.432h-1.051Zm.772,0h2.968v.927h-2.968Zm0,2.21h2.743v.9h-2.743Zm0,2.295h3.006v.927h-3.006Z" transform="translate(-94.482 -122.1)" fill="#fff"/>
          <path id="パス_1218" data-name="パス 1218" d="M164.634,181.846h1.051v5.432h-1.051Zm.772,0h2.867v.927h-2.867Zm0,2.28h2.736v.927h-2.736Z" transform="translate(-110.543 -122.1)" fill="#fff"/>
          <path id="パス_1219" data-name="パス 1219" d="M181.6,187.19a2.833,2.833,0,0,1-1.109-.216,2.792,2.792,0,0,1-1.72-2.6,2.752,2.752,0,0,1,.217-1.093,2.853,2.853,0,0,1,.6-.893,2.663,2.663,0,0,1,.892-.6,3.052,3.052,0,0,1,2.218,0,2.667,2.667,0,0,1,.892.6,2.846,2.846,0,0,1,.6.9,2.892,2.892,0,0,1,0,2.194,2.87,2.87,0,0,1-.6.9,2.656,2.656,0,0,1-.892.6,2.854,2.854,0,0,1-1.1.213m-.016-.974a1.742,1.742,0,0,0,.908-.232,1.594,1.594,0,0,0,.607-.645,2.045,2.045,0,0,0,.217-.962,2.091,2.091,0,0,0-.124-.734,1.67,1.67,0,0,0-.355-.576,1.6,1.6,0,0,0-.545-.375,1.813,1.813,0,0,0-.707-.131,1.733,1.733,0,0,0-.9.228,1.609,1.609,0,0,0-.607.638,1.976,1.976,0,0,0-.22.95,2.181,2.181,0,0,0,.124.75,1.642,1.642,0,0,0,.352.579,1.608,1.608,0,0,0,.549.375,1.782,1.782,0,0,0,.7.135" transform="translate(-120.033 -121.926)" fill="#fff"/>
          <path id="パス_1220" data-name="パス 1220" d="M199.865,181.846h1.051v5.432h-1.051Zm.772,3.168v-.827h1.252a.844.844,0,0,0,.6-.2.7.7,0,0,0,.209-.537.734.734,0,0,0-.209-.537.8.8,0,0,0-.6-.213h-1.26v-.858H202a1.975,1.975,0,0,1,.916.2,1.591,1.591,0,0,1,.618,2.21,1.509,1.509,0,0,1-.622.553,2.062,2.062,0,0,1-.935.2Zm2.195,2.264-1.8-2.349.973-.3,2.1,2.65Z" transform="translate(-134.198 -122.1)" fill="#fff"/>
          <path id="パス_1221" data-name="パス 1221" d="M222.326,181.846h1.051v5.432h-1.051Zm3.284,5.432-2.357-2.836,2.3-2.6h1.314l-2.55,2.828v-.495l2.627,3.1Z" transform="translate(-149.28 -122.1)" fill="#fff"/>
          <path id="パス_1222" data-name="パス 1222" d="M239.918,187.278v-5.432h.734l.317,1.059v4.374Zm3.756,0-3.222-4.165.2-1.267,3.23,4.165Zm0,0-.3-1.02v-4.412h1.051v5.432Z" transform="translate(-161.092 -122.1)" fill="#fff"/>
          <path id="パス_1223" data-name="パス 1223" d="M260.386,187.19a2.832,2.832,0,0,1-1.109-.216,2.792,2.792,0,0,1-1.72-2.6,2.751,2.751,0,0,1,.217-1.093,2.852,2.852,0,0,1,.6-.893,2.664,2.664,0,0,1,.892-.6,3.052,3.052,0,0,1,2.218,0,2.666,2.666,0,0,1,.892.6,2.846,2.846,0,0,1,.6.9,2.892,2.892,0,0,1,0,2.194,2.87,2.87,0,0,1-.6.9,2.656,2.656,0,0,1-.892.6,2.855,2.855,0,0,1-1.1.213m-.016-.974a1.742,1.742,0,0,0,.908-.232,1.593,1.593,0,0,0,.607-.645,2.046,2.046,0,0,0,.217-.962,2.092,2.092,0,0,0-.124-.734,1.67,1.67,0,0,0-.356-.576,1.6,1.6,0,0,0-.545-.375,1.813,1.813,0,0,0-.707-.131,1.733,1.733,0,0,0-.9.228,1.609,1.609,0,0,0-.607.638,1.976,1.976,0,0,0-.22.95,2.181,2.181,0,0,0,.124.75,1.643,1.643,0,0,0,.352.579,1.608,1.608,0,0,0,.549.375,1.783,1.783,0,0,0,.7.135" transform="translate(-172.935 -121.926)" fill="#fff"/>
          <path id="パス_1224" data-name="パス 1224" d="M279.217,187.279l-1.762-5.432h1.051l1.306,4.18h-.355l1.275-4.18h.789l1.275,4.18h-.348l1.306-4.18h1.035l-1.762,5.432h-.788l-1.283-4.173h.34l-1.282,4.173Z" transform="translate(-186.296 -122.1)" fill="#fff"/>
          <path id="パス_1225" data-name="パス 1225" d="M303.4,181.846h1.051v5.432H303.4Zm.773,4.5h2.766v.935h-2.766Z" transform="translate(-203.714 -122.1)" fill="#fff"/>
          <path id="パス_1226" data-name="パス 1226" d="M317.86,181.846h1.051v5.432H317.86Zm.773,0H321.6v.927h-2.967Zm0,2.21h2.743v.9h-2.743Zm0,2.295h3.006v.927h-3.006Z" transform="translate(-213.426 -122.1)" fill="#fff"/>
          <path id="パス_1227" data-name="パス 1227" d="M333.429,181.846h1.051v5.432h-1.051Zm.719,5.432v-.935h1.383a1.857,1.857,0,0,0,.916-.22,1.536,1.536,0,0,0,.618-.626,1.958,1.958,0,0,0,.22-.947,1.844,1.844,0,0,0-.224-.927,1.614,1.614,0,0,0-.618-.618,1.811,1.811,0,0,0-.912-.224h-1.406v-.935h1.422a3.077,3.077,0,0,1,1.12.2,2.656,2.656,0,0,1,.9.568,2.592,2.592,0,0,1,.587.862,2.755,2.755,0,0,1,.209,1.082,2.783,2.783,0,0,1-.209,1.086,2.581,2.581,0,0,1-.587.866,2.669,2.669,0,0,1-.893.568,3.017,3.017,0,0,1-1.109.2Z" transform="translate(-223.879 -122.1)" fill="#fff"/>
          <path id="パス_1228" data-name="パス 1228" d="M354.345,187.206a2.717,2.717,0,0,1-1.078-.216,2.773,2.773,0,0,1-.889-.6,2.837,2.837,0,0,1-.6-.9,2.783,2.783,0,0,1-.216-1.1,2.714,2.714,0,0,1,.22-1.093,2.827,2.827,0,0,1,.607-.889,2.713,2.713,0,0,1,.9-.591,2.977,2.977,0,0,1,1.12-.208,3.017,3.017,0,0,1,1.232.247,2.527,2.527,0,0,1,.939.7l-.719.719a1.607,1.607,0,0,0-.626-.517,1.94,1.94,0,0,0-.835-.178,1.812,1.812,0,0,0-.916.228,1.612,1.612,0,0,0-.622.637,1.932,1.932,0,0,0-.224.943,1.964,1.964,0,0,0,.224.958,1.625,1.625,0,0,0,1.468.865,1.916,1.916,0,0,0,.881-.185,1.269,1.269,0,0,0,.557-.553,1.917,1.917,0,0,0,.193-.9l.688.479-2.38-.023v-.928h2.774v.155a3.458,3.458,0,0,1-.348,1.631,2.313,2.313,0,0,1-.958.985,2.9,2.9,0,0,1-1.4.329" transform="translate(-236.055 -121.942)" fill="#fff"/>
          <path id="パス_1229" data-name="パス 1229" d="M372.119,181.846h1.051v5.432h-1.051Zm.773,0h2.967v.927h-2.967Zm0,2.21h2.743v.9h-2.743Zm0,2.295H375.9v.927h-3.006Z" transform="translate(-249.858 -122.1)" fill="#fff"/>
        </g>
      </g>
    </g>
    <g id="グループ_5899" data-name="グループ 5899" transform="translate(168 4778.208)">
      <g id="グループ_5895" data-name="グループ 5895" transform="translate(0 0)" clip-path="url(#clip-path-2)">
        <path id="パス_1251" data-name="パス 1251" d="M62.472,20.274a19.722,19.722,0,0,1-3.48-8.737h11.57v-2.9H58.727c-.007-.188-.009-.371-.009-.546V.076H55.1V8.089c0,.175-.007.355-.008.546H43.258v2.9H54.826a19.754,19.754,0,0,1-3.476,8.737A18.925,18.925,0,0,1,44.123,26.1c-.458.212-.887.388-1.288.536v3.331a22.218,22.218,0,0,0,11.032-7.8,20.475,20.475,0,0,0,2.59-4.669v0a.51.51,0,0,1,.9-.009v0a20.755,20.755,0,0,0,2.59,4.677,22.246,22.246,0,0,0,11.037,7.8V26.632a18.986,18.986,0,0,1-8.514-6.358" transform="translate(13.561 0.024)" fill="#fff"/>
        <path id="パス_1252" data-name="パス 1252" d="M111.972,20.274a19.7,19.7,0,0,1-3.477-8.737h11.573v-2.9h-11.84c0-.188-.009-.371,0-.546V.076H104.6V8.089c0,.175,0,.355-.011.546H92.762v2.9h11.566a19.692,19.692,0,0,1-3.476,8.737A18.928,18.928,0,0,1,93.623,26.1c-.457.212-.887.388-1.285.536v3.331a22.228,22.228,0,0,0,11.034-7.8,20.833,20.833,0,0,0,2.59-4.669v0a.508.508,0,0,1,.9-.009v0a20.71,20.71,0,0,0,2.591,4.677,22.208,22.208,0,0,0,11.037,7.8V26.632a18.966,18.966,0,0,1-8.518-6.358" transform="translate(29.233 0.024)" fill="#fff"/>
        <path id="パス_1253" data-name="パス 1253" d="M74.238,3.713a.415.415,0,0,0,.038-.18.513.513,0,0,0-.512-.51H70.643V29.662H67.7V.836h9.656V3.517L75.1,9.61c.128.169.259.344.391.532a8.808,8.808,0,0,1,1.769,4.9c.013,3.2-1.09,5.266-2.308,6.41a6.028,6.028,0,0,1-1.236.916l-.786-2.528a2.756,2.756,0,0,0,.265-.23c.7-.678,1.5-1.906,1.519-4.569A6.367,6.367,0,0,0,73.4,11.6a11.025,11.025,0,0,0-1.442-1.683l0-.007-.012-.007L74,4.373ZM96.4,26.383v2.906a19.112,19.112,0,0,1-6.434-3.927c-.535-.486-1.036-.986-1.515-1.494a22.712,22.712,0,0,1-2.016,2.1,22.4,22.4,0,0,1-5.114,3.642V26.531a22.4,22.4,0,0,0,3.3-2.559,19.817,19.817,0,0,0,2.039-2.166,35.816,35.816,0,0,1-2.228-3.172,24.439,24.439,0,0,1-2.2-4.654,38.574,38.574,0,0,1-.276,4.293,12.159,12.159,0,0,1-3.524,7.5,10.627,10.627,0,0,1-3,2.149L74.625,25.3a7.438,7.438,0,0,0,1.87-1.4,9.379,9.379,0,0,0,2.8-5.979,44.66,44.66,0,0,0,.267-5.37c0-.571,0-1.039,0-1.357V.827H95.209V3.695H82.925V8.607h12.2a42.924,42.924,0,0,1-3.165,9.9,25.162,25.162,0,0,1-1.848,3.191c.523.57,1.077,1.13,1.673,1.669a16.348,16.348,0,0,0,4.62,3.019M91.56,11.842a.441.441,0,0,0,.024-.138.512.512,0,0,0-.513-.508h-6.9A25.012,25.012,0,0,0,86.726,17.2c.49.782,1.015,1.555,1.585,2.316a20.6,20.6,0,0,0,1.219-2.184,32.032,32.032,0,0,0,1.775-4.623Z" transform="translate(21.432 0.262)" fill="#fff"/>
        <path id="パス_1254" data-name="パス 1254" d="M124.224.076h-2.666V4.209h2.666Zm6.984,0h-2.667V4.209h2.667Zm-10.926,8.2h20.481a.944.944,0,0,1,.951.943V13h3.21V5.7h-6.559a11.191,11.191,0,0,0,1.211-1.375A17.857,17.857,0,0,0,141.9.076h-3.118A14.221,14.221,0,0,1,136.933,3.4a10.33,10.33,0,0,1-2.451,2.3H117.075V13h3.207Zm25.247,12.5V18.2H132.857V16.785a23.084,23.084,0,0,0,3.166-1.613,20.828,20.828,0,0,0,2.7-2.083V10.738H122.859v2.351h11.8a15.7,15.7,0,0,1-2.3,1.386,12.166,12.166,0,0,1-2.712.94V18.2H116.614v2.573h13.037v3.068a3.476,3.476,0,0,1-.862,2.419,4.458,4.458,0,0,1-2.577,1.03,11.323,11.323,0,0,1-1.16.1v2.567a14.965,14.965,0,0,0,5.052-.989,4.3,4.3,0,0,0,2.476-2.907,10.1,10.1,0,0,0,.276-2.224V20.774Z" transform="translate(36.918 0.024)" fill="#fff"/>
        <path id="パス_1255" data-name="パス 1255" d="M45.255,18.929A22.744,22.744,0,0,0,28.734,0L22.726,6.008A15.911,15.911,0,0,1,38.3,18.66,22.692,22.692,0,0,0,22.724,27.6,22.691,22.691,0,0,0,7.152,18.66,15.914,15.914,0,0,1,22.726,6.008L16.718,0A22.745,22.745,0,0,0,.2,18.929,23.031,23.031,0,0,0,0,21.916a22.7,22.7,0,0,0,.353,3.971,15.888,15.888,0,0,1,4.191-.561,16.122,16.122,0,0,1,2.7.23A15.931,15.931,0,0,1,19.1,34.822a15.758,15.758,0,0,1,.927,2.769,16.024,16.024,0,0,1,.421,3.64,16.085,16.085,0,0,1-.333,3.256c-.012.053-.026.1-.038.154h5.287c-.011-.051-.025-.1-.036-.154a15.9,15.9,0,0,1,.088-6.9,15.758,15.758,0,0,1,.927-2.769,15.924,15.924,0,0,1,11.861-9.266,16.107,16.107,0,0,1,2.7-.23,15.908,15.908,0,0,1,4.193.561,22.77,22.77,0,0,0,.157-6.958" transform="translate(0 0)" fill="#fff"/>
        <path id="パス_1256" data-name="パス 1256" d="M64.987,33.061a2.605,2.605,0,0,1-2.8,2.925c-1.718,0-2.665-.965-2.665-2.925v-5.27h1.128V33.04c0,1.318.582,1.877,1.565,1.877s1.564-.56,1.564-1.877V27.791h1.2Z" transform="translate(18.845 8.799)" fill="#fff"/>
        <path id="パス_1257" data-name="パス 1257" d="M48.523,28.922H46.318v6.919h-1.3V28.922H42.834V27.791h5.689Z" transform="translate(13.561 8.799)" fill="#fff"/>
        <path id="パス_1258" data-name="パス 1258" d="M53.35,35.841H52.072V32.21H48.988v3.631H47.71v-8.05h1.278V31.07h3.083V27.791H53.35Z" transform="translate(15.104 8.799)" fill="#fff"/>
        <path id="パス_1259" data-name="パス 1259" d="M57.857,28.9h-3.6v2.126H57.2v1.11H54.259v2.594h3.675v1.11H52.97v-8.05h4.887Z" transform="translate(16.769 8.799)" fill="#fff"/>
        <rect id="長方形_836" data-name="長方形 836" width="1.298" height="8.05" transform="translate(92.248 36.589)" fill="#fff"/>
        <path id="パス_1260" data-name="パス 1260" d="M81.979,28.9h-3.6v2.126h2.943v1.11H78.381v2.594h3.675v1.11H77.092v-8.05h4.887Z" transform="translate(24.406 8.799)" fill="#fff"/>
        <path id="パス_1261" data-name="パス 1261" d="M84.214,27.791c1.8,0,2.624.787,2.624,2.188a2.017,2.017,0,0,1-1.469,2.043l1.709,3.818H85.693l-1.5-3.61c-.105,0-.209.011-.333.011H82.811v3.6h-1.26v-8.05Zm-1.4,3.413H84.1c1.011,0,1.451-.457,1.451-1.2,0-.716-.373-1.163-1.394-1.163H82.811Z" transform="translate(25.818 8.799)" fill="#fff"/>
        <rect id="長方形_837" data-name="長方形 837" width="1.298" height="8.05" transform="translate(119.909 36.591)" fill="#fff"/>
        <path id="パス_1262" data-name="パス 1262" d="M98.5,28.922H96.3v6.919H95V28.922H92.815V27.791H98.5Z" transform="translate(29.384 8.799)" fill="#fff"/>
        <path id="パス_1263" data-name="パス 1263" d="M101.306,32.511v3.33h-1.3v-3.33l-2.386-4.72h1.431l1.471,3c.095.187.142.3.229.487.086-.2.133-.3.238-.5l1.422-2.987h1.317Z" transform="translate(30.906 8.799)" fill="#fff"/>
        <path id="パス_1264" data-name="パス 1264" d="M113.9,28.9h-3.58V31.07h2.935v1.11h-2.935v3.661h-1.3v-8.05H113.9Z" transform="translate(34.517 8.799)" fill="#fff"/>
        <path id="パス_1265" data-name="パス 1265" d="M74.076,35.841l-2.337-8.05H73.08l1.766,6.563,1.82-6.563h1.3l-2.384,8.05Z" transform="translate(22.711 8.799)" fill="#fff"/>
        <path id="パス_1266" data-name="パス 1266" d="M120.551,30.782a2.94,2.94,0,1,0-5.88,0c-.022.791-.022,1.26,0,2.057a2.941,2.941,0,1,0,5.88,0c.008-.781.013-1.26,0-2.057m-1.306,2.209a1.639,1.639,0,1,1-3.276,0c-.025-.911-.025-1.472,0-2.392a1.638,1.638,0,1,1,3.276,0c.025.92.025,1.481,0,2.392" transform="translate(36.298 8.799)" fill="#fff"/>
        <path id="パス_1267" data-name="パス 1267" d="M132.019,31l2.787,4.845h-1.46l-2.158-3.869-.868,1.057v2.812h-1.27V27.791h1.27v3.672l2.8-3.672h1.469Z" transform="translate(40.855 8.799)" fill="#fff"/>
        <path id="パス_1268" data-name="パス 1268" d="M138.772,35.841h1.338l-2.561-8.05h-1.26l-2.561,8.05h1.249l.7-2.383h2.386Zm-2.785-3.417.887-3,.887,3Z" transform="translate(42.336 8.799)" fill="#fff"/>
        <path id="パス_1269" data-name="パス 1269" d="M128.721,35.841h1.338l-2.561-8.05h-1.26l-2.561,8.05h1.249l.7-2.383h2.386Zm-2.783-3.417.886-3,.889,3Z" transform="translate(39.154 8.799)" fill="#fff"/>
        <path id="パス_1270" data-name="パス 1270" d="M109.752,30.782a2.94,2.94,0,1,0-5.88,0c-.022.791-.022,1.26,0,2.057a2.941,2.941,0,1,0,5.88,0c.008-.781.013-1.26,0-2.057m-1.306,2.209a1.639,1.639,0,1,1-3.276,0c-.025-.911-.025-1.472,0-2.392a1.638,1.638,0,1,1,3.276,0c.025.92.025,1.481,0,2.392" transform="translate(32.879 8.799)" fill="#fff"/>
        <path id="パス_1271" data-name="パス 1271" d="M123.479,30.084c-.184-.841-.608-1.272-1.272-1.272-.754,0-1.188.391-1.188,1.011,0,.681.276.991,1.307,1.3l.378.12c1.631.481,2.092,1.152,2.092,2.293,0,1.361-.866,2.3-2.581,2.3a2.529,2.529,0,0,1-2.7-2.013l1.189-.411a1.517,1.517,0,0,0,1.484,1.4c.939,0,1.363-.441,1.363-1.111s-.221-.981-1.392-1.342l-.367-.12c-1.521-.491-2.009-1.141-2.009-2.333a2.138,2.138,0,0,1,2.386-2.122,2.444,2.444,0,0,1,2.516,1.931Z" transform="translate(37.837 8.799)" fill="#fff"/>
        <path id="パス_1272" data-name="パス 1272" d="M90.159,30.084c-.184-.841-.608-1.272-1.272-1.272-.754,0-1.188.391-1.188,1.011,0,.681.276.991,1.307,1.3l.378.12c1.631.481,2.092,1.152,2.092,2.293,0,1.361-.866,2.3-2.581,2.3a2.529,2.529,0,0,1-2.7-2.013l1.189-.411a1.517,1.517,0,0,0,1.484,1.4c.939,0,1.363-.441,1.363-1.111s-.221-.981-1.392-1.342l-.369-.12c-1.519-.491-2.008-1.141-2.008-2.333a2.138,2.138,0,0,1,2.386-2.122,2.444,2.444,0,0,1,2.516,1.931Z" transform="translate(27.289 8.799)" fill="#fff"/>
        <path id="パス_1273" data-name="パス 1273" d="M69.061,27.791v5.572l-3.074-5.572H64.606v8.05h1.161V29.695L69.1,35.683l.083.158h1.041v-8.05Z" transform="translate(20.453 8.799)" fill="#fff"/>
      </g>
    </g>
  </g>
</svg>
